<svg width="376" height="376" viewBox="0 0 376 376" fill="none" xmlns="http://www.w3.org/2000/svg">
<path d="M188 376C291.83 376 376 291.83 376 188C376 84.1705 291.83 0 188 0C84.1705 0 0 84.1705 0 188C0 291.83 84.1705 376 188 376Z" fill="url(#paint0_linear_1285_35029)" fill-opacity="0.6"/>
<g clip-path="url(#clip0_1285_35029)">
<path d="M191.835 292.74L160.868 274.81L244.395 226.426L275.363 244.356L191.835 292.74Z" fill="#E3E3E3"/>
<path d="M126.775 299.001L95.8071 281.071L245.105 194.691L276.073 212.622L126.775 299.001Z" fill="#E3E3E3"/>
<path d="M251.071 146.165L263.572 138.908C256.469 134.781 250.077 134.496 245.389 137.058L232.888 144.315C237.576 141.611 243.969 142.038 251.071 146.165Z" fill="url(#paint1_linear_1285_35029)"/>
<path d="M251.071 146.164L263.572 138.906C277.635 147.018 289 166.798 289 183.021C289 191.132 286.158 196.682 281.613 199.386L269.112 206.644C273.658 203.94 276.499 198.248 276.499 190.278C276.499 174.056 265.135 154.275 251.071 146.164Z" fill="url(#paint2_linear_1285_35029)"/>
<path d="M251.071 146.166C265.135 154.278 276.499 174.058 276.499 190.281C276.499 206.504 264.993 213.05 250.929 204.938C236.866 196.827 225.502 177.047 225.502 160.824C225.502 144.459 237.008 137.913 251.071 146.166Z" fill="url(#paint3_linear_1285_35029)"/>
<path d="M249.935 154.421C239.423 148.444 231.042 153.282 230.9 165.236C230.9 177.19 239.281 191.847 249.793 197.966C260.305 203.943 268.686 199.105 268.828 187.151C268.97 175.197 260.305 160.398 249.935 154.421Z" fill="url(#paint4_linear_1285_35029)"/>
<path d="M255.191 125.106L238.571 115.43C238.713 115.857 241.838 126.245 242.974 144.175C245.673 145.171 253.77 149.156 259.594 153.994C258.458 135.922 255.333 125.533 255.191 125.106Z" fill="#919BBD"/>
<path d="M241.128 104.329L224.507 94.6523C231.326 98.6369 236.298 105.61 238.571 115.571L255.191 125.248C253.06 115.287 247.946 108.314 241.128 104.329Z" fill="#919BBD"/>
<path d="M216.978 89.8136C225.786 87.2521 234.167 87.1098 241.412 89.2443C253.202 92.802 261.583 102.621 264.85 116.852C265.277 118.275 267.976 127.809 269.254 143.89C269.254 144.459 269.822 144.459 269.538 145.028C264.85 146.878 259.595 153.851 259.595 153.851C258.458 135.92 255.333 125.532 255.191 125.248C250.787 105.894 235.587 97.3557 216.836 101.767C216.978 97.6404 216.978 93.7981 216.978 89.8136Z" fill="#A5B0D6"/>
<path d="M260.457 214.2C271.174 207.96 271.138 187.864 260.375 169.313C249.613 150.762 232.2 140.782 221.483 147.022C210.765 153.262 210.802 173.359 221.564 191.909C232.327 210.46 249.74 220.44 260.457 214.2Z" fill="#45414A"/>
<path d="M229.053 142.611C234.025 139.765 240.986 140.049 248.657 144.603C263.856 153.426 276.215 174.772 276.073 192.275C276.073 200.956 272.948 207.075 267.976 209.921L260.447 214.332C265.419 211.486 268.402 205.367 268.544 196.687C268.544 179.183 256.328 157.837 241.128 149.014C233.457 144.603 226.496 144.176 221.524 147.022L229.053 142.611Z" fill="url(#paint5_linear_1285_35029)"/>
<path d="M259.594 244.501C258.742 243.22 257.748 242.082 256.753 240.801C257.89 242.366 259.168 243.789 260.589 245.212L262.151 247.489C261.299 246.635 260.447 245.639 259.594 244.501Z" fill="#61A2F7"/>
<path d="M217.973 242.082L197.091 229.986C194.96 228.705 192.829 227.282 190.982 225.574L211.864 237.67C213.711 239.378 215.842 240.801 217.973 242.082Z" fill="#61A2F7"/>
<path d="M238.855 248.485C237.008 248.201 235.019 247.774 233.173 247.489C225.218 246.066 217.973 242.793 212.007 237.812L217.405 238.524C223.513 243.789 230.758 247.062 238.855 248.485Z" fill="#3B8CF7"/>
<path d="M213.143 99.7746C214.99 100.059 216.837 100.486 218.683 100.771C208.029 98.9208 194.676 101.909 180.045 110.305L175.215 109.167C189.562 100.771 202.631 97.9246 213.143 99.7746Z" fill="#61A2F7"/>
<path d="M228.485 104.328L249.367 116.424C237.718 109.735 220.388 111.158 201.068 122.4L180.187 110.304C199.506 99.0623 216.836 97.497 228.485 104.328Z" fill="#257FF7"/>
<path d="M256.47 122.402C257.606 123.825 258.885 125.248 260.021 126.814C249.651 114.149 229.195 113.295 205.757 126.814L200.927 122.402C224.934 108.599 245.674 109.452 256.47 122.402Z" fill="#3B8CF7"/>
<path d="M124.928 232.547C123.791 231.124 122.513 229.7 121.377 228.135C116.689 222.443 113.99 214.332 113.99 204.228C113.848 171.498 141.264 128.806 175.357 109.168L180.187 110.306C145.384 130.371 117.257 174.059 117.399 207.785C117.399 218.316 120.098 226.57 124.928 232.547Z" fill="#61A2F7"/>
<path d="M152.912 250.618L132.03 238.522C122.939 233.256 117.399 222.726 117.257 207.784C117.115 174.057 145.241 130.37 180.045 110.305L200.926 122.401C166.265 142.466 138.139 186.153 138.281 219.88C138.281 234.822 143.821 245.352 152.912 250.618Z" fill="#257FF7"/>
<path d="M205.756 126.813C239.849 107.175 267.407 117.99 267.407 150.721C267.407 167.939 259.879 188.005 247.094 206.789L247.662 211.058C249.651 227.423 255.475 240.515 262.151 247.346L264.566 246.492C245.957 251.615 229.621 248.769 217.121 238.238C213.001 241.369 209.45 243.504 206.04 245.638C171.948 265.276 144.389 254.461 144.389 221.731C144.389 189.143 171.663 146.594 205.756 126.813Z" fill="#61A2F7"/>
<path d="M230.332 185.158L225.076 188.146C224.507 190.423 223.655 192.7 222.803 194.834L225.644 198.677C223.655 202.661 221.382 206.503 218.683 209.919L214.564 208.211C212.859 210.346 210.87 212.338 208.882 214.045L208.029 220.734C206.467 221.872 205.046 222.868 203.484 223.865C201.921 224.718 200.358 225.572 198.938 226.141L198.085 220.449C196.097 221.018 194.25 221.303 192.403 221.161L188.284 227.564C185.585 227.138 183.312 225.999 181.323 224.291L184.164 217.176C183.17 216.038 182.46 214.757 181.749 213.192L176.493 216.322C175.783 213.903 175.357 211.057 175.357 207.926C175.357 207.215 175.357 206.503 175.357 205.792L180.613 200.526C180.755 198.819 181.181 197.253 181.607 195.546L177.488 193.98C178.766 189.569 180.755 185.158 183.028 181.031L188.284 180.319C188.994 179.181 189.846 178.042 190.557 176.904L189.562 171.354C192.545 167.654 195.813 164.523 199.364 161.819L202.063 165.804C202.489 165.519 202.915 165.235 203.341 165.092C203.768 164.808 204.194 164.666 204.62 164.381L207.319 157.266C210.87 155.843 214.138 155.273 217.121 155.416L216.126 162.104C216.979 162.246 217.689 162.531 218.399 162.816L223.655 157.55C225.928 158.973 227.917 161.25 229.195 164.096L225.076 170.5C225.502 171.639 225.786 172.919 226.07 174.342L231.326 173.488C231.326 174.2 231.468 174.769 231.468 175.481C231.468 178.611 231.042 181.885 230.332 185.158Z" fill="#257FF7"/>
<path d="M168.254 255.173C166.407 254.888 164.561 254.462 162.714 254.177C147.798 251.615 138.281 239.662 138.281 219.881C138.139 186.155 166.265 142.467 200.926 122.402L205.756 126.814C171.663 146.594 144.247 189.143 144.389 221.874C144.531 240.943 153.765 252.612 168.254 255.173Z" fill="#3B8CF7"/>
<path d="M147 281.927C157.717 275.687 157.681 255.59 146.918 237.039C136.156 218.489 118.743 208.509 108.026 214.749C97.3082 220.988 97.3449 241.085 108.107 259.636C118.87 278.187 136.283 288.167 147 281.927Z" fill="#4D4852"/>
<path d="M115.553 210.345C120.525 207.499 127.485 207.784 135.156 212.337C150.356 221.16 162.715 242.506 162.572 260.01C162.572 268.69 159.447 274.809 154.475 277.655L146.947 282.067C151.918 279.221 154.902 273.102 155.044 264.421C155.044 246.917 142.827 225.572 127.627 216.749C119.956 212.195 112.996 211.768 108.024 214.614L115.553 210.345Z" fill="url(#paint6_linear_1285_35029)"/>
<path d="M112.57 226.993L125.07 219.736C117.968 215.609 111.575 215.324 106.887 217.886L94.3867 225.143C99.0745 222.582 105.467 223.009 112.57 226.993Z" fill="#BFC0E3"/>
<path d="M112.569 226.996L125.07 219.738C139.133 227.85 150.498 247.63 150.498 263.853C150.498 271.964 147.657 277.514 143.111 280.218L130.61 287.476C135.156 284.772 137.997 279.08 137.997 271.11C137.997 254.888 126.633 235.25 112.569 226.996Z" fill="url(#paint7_linear_1285_35029)"/>
<path d="M112.57 226.996C126.633 235.107 137.997 254.888 137.997 271.111C137.997 287.333 126.491 293.879 112.428 285.768C98.3643 277.657 87 257.876 87 241.653C87 225.431 98.5063 218.885 112.57 226.996Z" fill="url(#paint8_linear_1285_35029)"/>
<path d="M112.569 232.543C124.076 239.231 133.309 255.312 133.309 268.404C133.309 281.638 123.934 286.904 112.427 280.358C100.921 273.669 91.6875 257.589 91.6875 244.497C91.8296 231.262 101.063 225.855 112.569 232.543Z" fill="#61A2F7"/>
<path d="M124.83 280.128C132.224 275.823 132.209 261.977 124.798 249.202C117.386 236.427 105.384 229.561 97.9908 233.866C90.5972 238.17 90.6118 252.016 98.0233 264.791C105.435 277.566 117.437 284.432 124.83 280.128Z" fill="#EDEAFB"/>
<path d="M224.792 79.4235C227.207 80.135 229.48 81.1311 231.61 82.4119L248.231 92.0886C246.1 90.8079 243.827 89.954 241.412 89.1002C229.764 85.5426 215.274 88.3887 200.643 96.7847L184.022 87.1079C198.654 78.7119 213.143 76.0081 224.792 79.4235Z" fill="url(#paint9_linear_1285_35029)"/>
<path d="M200.642 96.9284L184.022 87.1094L163.282 99.2053L179.902 108.882L200.642 96.9284Z" fill="#EEEBFC"/>
<path d="M179.903 108.88L163.283 99.2031C155.043 103.899 147.088 110.303 139.418 118.272C128.621 129.514 119.104 143.318 112.143 158.26C105.183 173.06 100.779 188.428 99.6426 202.517C98.9323 211.055 97.6538 225.712 97.6538 227.562C97.6538 227.847 97.6538 231.262 97.6538 231.262L98.9323 233.539L114.416 237.239C113.99 239.801 115.553 221.87 116.405 212.193C117.683 198.105 121.945 182.736 128.906 167.937C136.008 152.994 145.384 139.191 156.18 127.949C163.709 119.98 171.664 113.576 179.903 108.88Z" fill="url(#paint10_linear_1285_35029)"/>
<path d="M116.263 212.195C117.541 198.107 121.803 182.738 128.763 167.938C135.866 152.996 145.242 139.192 156.038 127.95C163.567 120.124 171.664 113.72 179.903 108.881L200.642 96.9278C215.274 88.5318 229.763 85.6857 241.412 89.2434C249.509 91.6626 256.043 97.0701 260.305 104.897C257.18 108.028 254.055 111.158 250.929 114.289C241.838 98.6355 222.235 95.7894 200.642 108.312L179.903 120.266C172.942 124.25 166.123 129.658 159.731 136.346C141.122 155.7 128.337 183.022 126.206 207.641C125.922 210.914 125.638 215.183 125.212 219.737C124.644 226.141 117.683 236.102 117.683 236.102L114.416 237.241C114.558 226.71 115.41 221.872 116.263 212.195Z" fill="url(#paint11_linear_1285_35029)"/>
<path d="M242.406 272.39C239.707 272.39 236.866 271.678 234.451 270.255L232.605 269.259L235.304 264.563L237.15 265.559C240.418 267.409 244.537 267.409 247.804 265.559L264.425 256.025C274.937 250.048 281.187 236.956 279.624 224.148L275.647 200.526L280.903 199.672L284.88 223.437C286.727 238.379 279.34 253.606 266.982 260.579L250.361 270.113C247.947 271.821 245.247 272.39 242.406 272.39Z" fill="#DEE0F1"/>
<path d="M246.384 269.827C246.242 274.239 236.156 277.654 228.201 277.512C226.922 277.512 225.786 277.37 224.792 277.227C223.513 276.943 222.519 276.658 221.666 276.231C218.967 274.95 218.115 272.673 218.257 269.827C218.257 267.266 219.109 264.704 221.524 262.997C222.377 262.427 223.229 262.001 224.507 261.716C225.644 261.431 227.064 261.289 228.769 261.289C236.44 261.574 246.526 265.274 246.384 269.827Z" fill="#5B545F"/>
<path d="M226.07 274.665C225.644 275.661 225.218 276.515 224.65 277.226C223.371 276.941 222.377 276.657 221.525 276.23C218.826 274.949 217.973 272.672 218.116 269.826C218.116 267.265 218.968 264.703 221.383 262.996C222.235 262.426 223.087 261.999 224.366 261.715C224.65 261.857 224.934 262.142 225.076 262.426C227.065 265.13 227.633 270.538 226.07 274.665Z" fill="#4D4852"/>
<path d="M236.44 175.909L230.048 172.209L235.304 171.355L241.696 175.055L236.44 175.909Z" fill="#D8E3E3"/>
<path d="M209.166 227.99L202.773 224.148L201.779 218.598L208.313 222.298L209.166 227.99Z" fill="#B8C9D6"/>
<path d="M215.558 175.48L221.95 179.18C224.081 180.461 225.36 183.023 225.36 186.58C225.36 193.98 220.246 202.945 213.853 206.645L207.461 202.945C213.853 199.245 219.109 190.28 218.967 182.88C218.825 179.18 217.547 176.619 215.558 175.48Z" fill="#D8E3E3"/>
<mask id="mask0_1285_35029" style="mask-type:luminance" maskUnits="userSpaceOnUse" x="207" y="175" width="19" height="32">
<path d="M215.558 175.48L221.95 179.18C224.081 180.461 225.36 183.023 225.36 186.58C225.36 193.98 220.246 202.945 213.853 206.645L207.461 202.945C213.853 199.245 219.109 190.28 218.967 182.88C218.825 179.18 217.547 176.619 215.558 175.48Z" fill="white"/>
</mask>
<g mask="url(#mask0_1285_35029)">
<path d="M213.711 206.645L207.319 202.945C213.711 199.245 218.967 190.28 218.825 182.88C218.825 179.18 217.547 176.619 215.416 175.48L221.808 179.18C223.939 180.461 225.218 183.023 225.218 186.58C225.36 193.98 220.104 202.945 213.711 206.645Z" fill="#D8E3E3"/>
</g>
<path d="M205.472 207.499L199.08 203.799C201.211 205.08 204.052 204.795 207.319 202.945L213.712 206.645C210.444 208.495 207.603 208.638 205.472 207.499Z" fill="#D8E3E3"/>
<mask id="mask1_1285_35029" style="mask-type:luminance" maskUnits="userSpaceOnUse" x="199" y="202" width="15" height="7">
<path d="M205.472 207.499L199.08 203.799C201.211 205.08 204.052 204.795 207.319 202.945L213.712 206.645C210.444 208.495 207.603 208.638 205.472 207.499Z" fill="white"/>
</mask>
<g mask="url(#mask1_1285_35029)">
<path d="M205.472 207.499L199.08 203.799C201.211 205.08 204.052 204.795 207.319 202.945L213.712 206.645C210.444 208.495 207.603 208.638 205.472 207.499Z" fill="#D8E3E3"/>
</g>
<path d="M228.769 164.522L219.109 158.972L227.633 155.414L234.025 159.114L228.769 164.522Z" fill="#D8E3E3"/>
<path d="M193.824 227.707L187.432 224.007C186.721 223.58 185.869 223.011 185.301 222.441L191.693 226.141C192.261 226.711 192.972 227.28 193.824 227.707Z" fill="#B8C9D6"/>
<mask id="mask2_1285_35029" style="mask-type:luminance" maskUnits="userSpaceOnUse" x="185" y="222" width="9" height="6">
<path d="M193.824 227.707L187.432 224.007C186.721 223.58 185.869 223.011 185.301 222.441L191.693 226.141C192.261 226.711 192.972 227.28 193.824 227.707Z" fill="white"/>
</mask>
<g mask="url(#mask2_1285_35029)">
<path d="M193.824 227.707L187.432 224.007C186.721 223.58 185.869 223.011 185.301 222.441L191.693 226.141C192.261 226.711 192.972 227.28 193.824 227.707Z" fill="#D8E3E3"/>
</g>
<path d="M226.354 163.812L216.836 158.262C217.689 158.404 218.399 158.689 219.109 158.973L228.627 164.523C228.059 164.239 227.206 163.954 226.354 163.812Z" fill="#D8E3E3"/>
<mask id="mask3_1285_35029" style="mask-type:luminance" maskUnits="userSpaceOnUse" x="216" y="158" width="13" height="7">
<path d="M226.354 163.812L216.836 158.262C217.689 158.404 218.399 158.689 219.109 158.973L228.627 164.523C228.059 164.239 227.206 163.954 226.354 163.812Z" fill="white"/>
</mask>
<g mask="url(#mask3_1285_35029)">
<path d="M226.354 163.812L216.836 158.262C217.689 158.404 218.399 158.689 219.109 158.973L228.627 164.523C228.059 164.239 227.206 163.954 226.354 163.812Z" fill="#D8E3E3"/>
</g>
<path d="M191.551 226.143L185.159 222.301L184.875 213.336L194.392 218.886L191.551 226.143Z" fill="#CAD8E3"/>
<path d="M194.392 218.884L184.874 213.334C183.88 212.195 186.295 212.765 185.727 211.199L192.119 214.899C192.687 216.465 193.398 217.888 194.392 218.884Z" fill="#D8E3E3"/>
<mask id="mask4_1285_35029" style="mask-type:luminance" maskUnits="userSpaceOnUse" x="184" y="211" width="11" height="8">
<path d="M194.392 218.884L184.874 213.334C183.88 212.195 186.295 212.765 185.727 211.199L192.119 214.899C192.687 216.465 193.398 217.888 194.392 218.884Z" fill="white"/>
</mask>
<g mask="url(#mask4_1285_35029)">
<path d="M194.392 218.884L184.874 213.334C183.88 212.195 186.295 212.765 185.727 211.199L192.119 214.899C192.687 216.465 193.398 217.888 194.392 218.884Z" fill="#B8C9D6"/>
</g>
<path d="M214.848 166.089L208.456 162.389L211.155 155.273L217.547 158.973L214.848 166.089Z" fill="#B8C9D6"/>
<path d="M217.547 158.973L211.154 155.274C214.706 153.85 217.973 153.281 220.956 153.424L227.348 157.123C224.365 156.839 221.098 157.408 217.547 158.973Z" fill="#D8E3E3"/>
<mask id="mask5_1285_35029" style="mask-type:luminance" maskUnits="userSpaceOnUse" x="211" y="153" width="17" height="6">
<path d="M217.547 158.973L211.154 155.274C214.706 153.85 217.973 153.281 220.956 153.424L227.348 157.123C224.365 156.839 221.098 157.408 217.547 158.973Z" fill="white"/>
</mask>
<g mask="url(#mask5_1285_35029)">
<path d="M217.547 158.973L211.154 155.274C214.706 153.85 217.973 153.281 220.956 153.424L227.348 157.123C224.365 156.839 221.098 157.408 217.547 158.973Z" fill="#E2EDED"/>
</g>
<path d="M212.291 167.514L205.898 163.814C206.325 163.529 206.751 163.244 207.177 163.102C207.603 162.818 208.029 162.675 208.455 162.391L214.848 166.091C214.422 166.375 213.995 166.517 213.569 166.802C213.143 166.944 212.717 167.229 212.291 167.514Z" fill="#D8E3E3"/>
<mask id="mask6_1285_35029" style="mask-type:luminance" maskUnits="userSpaceOnUse" x="205" y="162" width="10" height="6">
<path d="M212.291 167.514L205.898 163.814C206.325 163.529 206.751 163.244 207.177 163.102C207.603 162.818 208.029 162.675 208.455 162.391L214.848 166.091C214.422 166.375 213.995 166.517 213.569 166.802C213.143 166.944 212.717 167.229 212.291 167.514Z" fill="white"/>
</mask>
<g mask="url(#mask6_1285_35029)">
<path d="M212.291 167.514L205.898 163.814C206.325 163.529 206.751 163.244 207.177 163.102C207.603 162.818 208.029 162.675 208.455 162.391L214.848 166.091C214.422 166.375 213.995 166.517 213.569 166.802C213.143 166.944 212.717 167.229 212.291 167.514Z" fill="#D8E3E3"/>
</g>
<path d="M190.841 202.235L184.448 198.535C184.59 196.828 185.016 195.262 185.443 193.555L191.835 197.255C191.409 198.962 191.125 200.67 190.841 202.235Z" fill="#D8E3E3"/>
<mask id="mask7_1285_35029" style="mask-type:luminance" maskUnits="userSpaceOnUse" x="184" y="193" width="8" height="10">
<path d="M190.841 202.235L184.448 198.535C184.59 196.828 185.016 195.262 185.443 193.555L191.835 197.255C191.409 198.962 191.125 200.67 190.841 202.235Z" fill="white"/>
</mask>
<g mask="url(#mask7_1285_35029)">
<path d="M190.841 202.235L184.448 198.535C184.59 196.828 185.016 195.262 185.443 193.555L191.835 197.255C191.409 198.962 191.125 200.67 190.841 202.235Z" fill="#B8C9D6"/>
</g>
<path d="M186.721 218.031L180.329 214.331C179.619 211.912 179.192 209.066 179.192 205.935C179.192 205.224 179.192 204.512 179.192 203.801L185.585 207.501C185.585 208.212 185.585 208.924 185.585 209.635C185.585 212.766 186.011 215.612 186.721 218.031Z" fill="#D8E3E3"/>
<mask id="mask8_1285_35029" style="mask-type:luminance" maskUnits="userSpaceOnUse" x="179" y="203" width="8" height="16">
<path d="M186.721 218.031L180.329 214.331C179.619 211.912 179.192 209.066 179.192 205.935C179.192 205.224 179.192 204.512 179.192 203.801L185.585 207.501C185.585 208.212 185.585 208.924 185.585 209.635C185.585 212.766 186.011 215.612 186.721 218.031Z" fill="white"/>
</mask>
<g mask="url(#mask8_1285_35029)">
<path d="M186.721 218.031L180.329 214.331C179.619 211.912 179.192 209.066 179.192 205.935C179.192 205.224 179.192 204.512 179.192 203.801L185.585 207.501C185.585 208.212 185.585 208.924 185.585 209.635C185.585 212.766 186.011 215.612 186.721 218.031Z" fill="#B8C9D6"/>
</g>
<path d="M185.585 207.5L179.192 203.8L184.448 198.535L190.841 202.235L185.585 207.5Z" fill="#CAD8E3"/>
<path d="M198.512 182.025L192.119 178.325C192.829 177.187 193.682 176.049 194.392 174.91L200.784 178.61C200.074 179.749 199.222 180.887 198.512 182.025Z" fill="#D8E3E3"/>
<mask id="mask9_1285_35029" style="mask-type:luminance" maskUnits="userSpaceOnUse" x="192" y="174" width="9" height="9">
<path d="M198.512 182.025L192.119 178.325C192.829 177.187 193.682 176.049 194.392 174.91L200.784 178.61C200.074 179.749 199.222 180.887 198.512 182.025Z" fill="white"/>
</mask>
<g mask="url(#mask9_1285_35029)">
<path d="M198.512 182.025L192.119 178.325C192.829 177.187 193.682 176.049 194.392 174.91L200.784 178.61C200.074 179.749 199.222 180.887 198.512 182.025Z" fill="#D8E3E3"/>
</g>
<path d="M200.784 178.613L194.392 174.913L193.397 169.363L199.79 173.063L200.784 178.613Z" fill="#B8C9D6"/>
<path d="M199.79 173.063L193.397 169.363C196.381 165.663 199.648 162.532 203.199 159.828L209.592 163.528C206.04 166.09 202.773 169.363 199.79 173.063Z" fill="#D8E3E3"/>
<mask id="mask10_1285_35029" style="mask-type:luminance" maskUnits="userSpaceOnUse" x="193" y="159" width="17" height="15">
<path d="M199.79 173.063L193.397 169.363C196.381 165.663 199.648 162.532 203.199 159.828L209.592 163.528C206.04 166.09 202.773 169.363 199.79 173.063Z" fill="white"/>
</mask>
<g mask="url(#mask10_1285_35029)">
<path d="M199.79 173.063L193.397 169.363C196.381 165.663 199.648 162.532 203.199 159.828L209.592 163.528C206.04 166.09 202.773 169.363 199.79 173.063Z" fill="#E2EDED"/>
</g>
<path d="M187.716 195.689L181.323 191.989C182.602 187.577 184.59 183.166 186.863 179.039L193.256 182.739C190.983 187.008 188.994 191.277 187.716 195.689Z" fill="#D8E3E3"/>
<mask id="mask11_1285_35029" style="mask-type:luminance" maskUnits="userSpaceOnUse" x="181" y="179" width="13" height="17">
<path d="M187.716 195.689L181.323 191.989C182.602 187.577 184.59 183.166 186.863 179.039L193.256 182.739C190.983 187.008 188.994 191.277 187.716 195.689Z" fill="white"/>
</mask>
<g mask="url(#mask11_1285_35029)">
<path d="M187.716 195.689L181.323 191.989C182.602 187.577 184.59 183.166 186.863 179.039L193.256 182.739C190.983 187.008 188.994 191.277 187.716 195.689Z" fill="#D8E3E3"/>
</g>
<path d="M240.701 186.865L235.445 189.853C234.877 192.13 234.025 194.407 233.172 196.541L236.013 200.384C234.025 204.368 231.752 208.21 229.053 211.626L224.933 209.918C223.229 212.053 221.24 214.045 219.251 215.753L218.399 222.441C216.836 223.579 215.416 224.575 213.853 225.572C212.291 226.425 210.728 227.279 209.307 227.848L208.455 222.156C206.466 222.725 204.62 223.01 202.773 222.868L198.653 229.272C195.954 228.845 193.682 227.706 191.693 225.998L194.534 218.883C193.539 217.745 192.829 216.464 192.119 214.899L186.863 218.029C186.153 215.61 185.727 212.764 185.727 209.633C185.727 208.922 185.727 208.21 185.727 207.499L190.983 202.234C191.125 200.526 191.551 198.961 191.977 197.253L187.857 195.687C189.136 191.276 191.125 186.865 193.397 182.738L198.653 182.026C199.364 180.888 200.216 179.749 200.926 178.611L199.932 173.061C202.915 169.361 206.182 166.23 209.734 163.527L212.433 167.511C212.859 167.226 213.285 166.942 213.711 166.8C214.137 166.515 214.563 166.373 214.99 166.088L217.689 158.973C221.24 157.55 224.507 156.98 227.49 157.123L226.496 163.811C227.348 163.953 228.058 164.238 228.769 164.523L234.025 159.257C236.298 160.68 238.286 162.957 239.565 165.803L235.445 172.065C235.871 173.203 236.156 174.484 236.44 175.907L241.696 175.053C241.696 175.765 241.838 176.334 241.838 177.045C241.838 180.176 241.412 183.449 240.701 186.865ZM213.711 206.645C220.103 202.945 225.359 193.98 225.217 186.58C225.217 179.18 219.961 176.192 213.569 179.892C207.177 183.592 201.921 192.557 202.063 199.957C202.063 207.357 207.319 210.345 213.711 206.645Z" fill="#FEFFFF"/>
<path d="M193.256 182.74L186.863 179.04L192.119 178.328L198.512 182.028L193.256 182.74Z" fill="#E2EDED"/>
<path d="M223.94 273.242C223.371 274.807 222.519 275.804 221.525 276.23C218.826 274.95 217.973 272.673 218.116 269.827C218.116 267.265 218.968 264.704 221.383 262.996C222.093 262.996 222.661 263.281 223.229 263.992C224.792 266.127 225.076 270.111 223.94 273.242Z" fill="#45414A"/>
</g>
<defs>
<linearGradient id="paint0_linear_1285_35029" x1="188" y1="0" x2="188" y2="376" gradientUnits="userSpaceOnUse">
<stop stop-color="#E3ECFA" stop-opacity="0.27"/>
<stop offset="1" stop-color="#DAE7FF" stop-opacity="0.22"/>
</linearGradient>
<linearGradient id="paint1_linear_1285_35029" x1="232.891" y1="140.695" x2="263.609" y2="140.695" gradientUnits="userSpaceOnUse">
<stop offset="0.1372" stop-color="#AABBD6"/>
<stop offset="0.198" stop-color="#AEBDD8"/>
<stop offset="0.7099" stop-color="#CCCDE8"/>
<stop offset="1" stop-color="#D7D3EE"/>
</linearGradient>
<linearGradient id="paint2_linear_1285_35029" x1="284.288" y1="197.772" x2="253.541" y2="144.61" gradientUnits="userSpaceOnUse">
<stop offset="0.1372" stop-color="#AABBD6"/>
<stop offset="0.198" stop-color="#AEBDD8"/>
<stop offset="0.7099" stop-color="#CCCDE8"/>
<stop offset="1" stop-color="#D7D3EE"/>
</linearGradient>
<linearGradient id="paint3_linear_1285_35029" x1="268.932" y1="206.656" x2="232.885" y2="144.331" gradientUnits="userSpaceOnUse">
<stop offset="0.1372" stop-color="#AABBD6"/>
<stop offset="0.198" stop-color="#AEBDD8"/>
<stop offset="0.7099" stop-color="#CCCDE8"/>
<stop offset="1" stop-color="#D7D3EE"/>
</linearGradient>
<linearGradient id="paint4_linear_1285_35029" x1="230.91" y1="176.122" x2="268.737" y2="176.122" gradientUnits="userSpaceOnUse">
<stop offset="0.1372" stop-color="#AABBD6"/>
<stop offset="0.198" stop-color="#AEBDD8"/>
<stop offset="0.7099" stop-color="#CCCDE8"/>
<stop offset="1" stop-color="#D7D3EE"/>
</linearGradient>
<linearGradient id="paint5_linear_1285_35029" x1="273.876" y1="206.543" x2="234.935" y2="139.215" gradientUnits="userSpaceOnUse">
<stop offset="0.1651" stop-color="#5A545E"/>
<stop offset="0.4528" stop-color="#615B66"/>
<stop offset="0.7863" stop-color="#706875"/>
</linearGradient>
<linearGradient id="paint6_linear_1285_35029" x1="160.372" y1="274.196" x2="121.432" y2="206.868" gradientUnits="userSpaceOnUse">
<stop offset="0.1651" stop-color="#5A545E"/>
<stop offset="0.4528" stop-color="#615B66"/>
<stop offset="0.7863" stop-color="#706875"/>
</linearGradient>
<linearGradient id="paint7_linear_1285_35029" x1="145.837" y1="278.719" x2="115.09" y2="225.557" gradientUnits="userSpaceOnUse">
<stop offset="0.1372" stop-color="#AABBD6"/>
<stop offset="0.198" stop-color="#AEBDD8"/>
<stop offset="0.7099" stop-color="#CCCDE8"/>
<stop offset="1" stop-color="#D7D3EE"/>
</linearGradient>
<linearGradient id="paint8_linear_1285_35029" x1="130.481" y1="287.601" x2="94.4337" y2="225.276" gradientUnits="userSpaceOnUse">
<stop stop-color="#D8DCED"/>
<stop offset="0.8163" stop-color="#EDEAFB"/>
</linearGradient>
<linearGradient id="paint9_linear_1285_35029" x1="209.113" y1="101.758" x2="223.116" y2="77.5459" gradientUnits="userSpaceOnUse">
<stop offset="0.2907" stop-color="#EEEBFC"/>
<stop offset="1" stop-color="#EAE8FA"/>
</linearGradient>
<linearGradient id="paint10_linear_1285_35029" x1="93.9547" y1="230.684" x2="168.317" y2="102.113" gradientUnits="userSpaceOnUse">
<stop stop-color="#EAE8FA"/>
<stop offset="0.7093" stop-color="#EEEBFC"/>
</linearGradient>
<linearGradient id="paint11_linear_1285_35029" x1="198.064" y1="189.601" x2="158.528" y2="121.242" gradientUnits="userSpaceOnUse">
<stop stop-color="#D5CEEE"/>
<stop offset="0.1009" stop-color="#CECAEA"/>
<stop offset="0.5871" stop-color="#B0B7DC"/>
<stop offset="0.8628" stop-color="#A5B0D6"/>
</linearGradient>
<clipPath id="clip0_1285_35029">
<rect width="202" height="221" fill="white" transform="translate(87 78)"/>
</clipPath>
</defs>
</svg>
