<svg width="376" height="376" viewBox="0 0 376 376" fill="none" xmlns="http://www.w3.org/2000/svg">
<path d="M188 376C291.83 376 376 291.83 376 188C376 84.1705 291.83 0 188 0C84.1705 0 0 84.1705 0 188C0 291.83 84.1705 376 188 376Z" fill="url(#paint0_linear_5138_893)" fill-opacity="0.6"/>
<g clip-path="url(#clip0_5138_893)">
<path d="M141.158 253.111L115.722 238.382V182.16L141.158 196.889V253.111Z" fill="#3357B3"/>
<path d="M157.101 166.893L152.444 169.587L126.828 154.858L131.665 152.164L157.101 166.893Z" fill="#4771DE"/>
<path d="M141.158 253.113L157.101 243.953V166.895L152.443 169.589L141.158 196.892V253.113Z" fill="#243D7D"/>
<path d="M141.158 196.891L152.443 169.588L126.828 154.859L115.722 182.162L141.158 196.891Z" fill="#ACC3B7"/>
<path d="M142.591 188.266L149.757 170.484L127.903 157.73L120.559 175.513L142.591 188.266Z" fill="#3357B3"/>
<path d="M119.663 177.848L118.229 181.26L140.262 194.014L141.695 190.421L119.663 177.848Z" fill="#3357B3"/>
<path d="M140.083 184.316L124.499 175.335L130.41 161.684L145.995 170.665L140.083 184.316Z" fill="#F6F6F6"/>
<path d="M130.948 163.301L133.277 164.558L132.56 166.354L130.231 165.097L130.948 163.301Z" fill="#E75221"/>
<path d="M133.814 164.918L136.143 166.175L135.426 167.972L133.098 166.714L133.814 164.918Z" fill="#C6C6C6"/>
<path d="M128.977 167.973L131.306 169.23L130.589 171.026L128.261 169.769L128.977 167.973Z" fill="#3685BA"/>
<path d="M131.843 169.586L134.172 171.023L133.456 172.819L131.127 171.382L131.843 169.586Z" fill="#C6C6C6"/>
<path d="M136.321 167.79L134.53 171.921C134.351 172.46 134.53 173.179 135.067 173.538L140.979 176.951C141.516 177.31 142.053 176.951 142.412 176.412L144.203 172.28C144.382 171.742 144.203 171.023 143.666 170.664L137.754 167.251C137.217 167.071 136.68 167.251 136.321 167.79Z" fill="#6AC6D0"/>
<path d="M127.903 170.305L130.411 171.742L129.515 173.538L127.187 172.101L127.903 170.305Z" fill="#C6C6C6"/>
<path d="M133.634 173.539L138.829 176.593L138.113 178.389L132.918 175.335L133.634 173.539Z" fill="#E75221"/>
<path d="M139.367 176.773L141.696 178.21L140.979 180.007L138.65 178.57L139.367 176.773Z" fill="#C6C6C6"/>
<path d="M127.007 172.641L129.336 174.078L128.619 175.874L126.111 174.437L127.007 172.641Z" fill="#E75221"/>
<path d="M129.873 174.258L132.202 175.695L131.485 177.491L128.978 176.054L129.873 174.258Z" fill="#C6C6C6"/>
<path d="M135.606 177.492L137.934 178.929L137.218 180.725L134.71 179.288L135.606 177.492Z" fill="#3685BA"/>
<path d="M138.471 179.289L140.8 180.546L139.904 182.343L137.575 181.085L138.471 179.289Z" fill="#C6C6C6"/>
<g opacity="0.2">
<path d="M135.068 221.677V223.832L121.096 215.749V213.594L135.068 221.677ZM121.096 219.162L135.068 227.245V225.09L121.096 217.007V219.162ZM121.096 222.575L135.068 230.658V228.502L121.096 220.419V222.575ZM121.096 225.988L135.068 234.071V231.915L121.096 223.832V225.988ZM121.096 229.401L135.068 237.484V235.328L121.096 227.245V229.401ZM121.096 232.813L135.068 240.896V238.741L121.096 230.658V232.813Z" fill="#1D1D1B"/>
</g>
<path d="M127.007 267.304L297 247.905V233.535L127.007 253.114V267.304Z" fill="#243D7D"/>
<path d="M293.597 252.576L203.136 304.846C198.479 307.54 191.135 307.54 186.477 304.846L130.41 272.334C125.753 269.64 125.753 265.329 130.41 262.814L220.87 210.544C225.528 207.85 232.872 207.85 237.529 210.544L293.597 243.056C298.254 245.75 298.254 249.882 293.597 252.576Z" fill="#243D7D"/>
<path d="M293.597 238.384L203.136 290.655C198.479 293.349 191.135 293.349 186.477 290.655L130.41 258.143C125.753 255.449 125.753 251.138 130.41 248.623L220.87 196.353C225.528 193.658 232.872 193.658 237.529 196.353L293.597 228.864C298.254 231.379 298.254 235.69 293.597 238.384Z" fill="#4771DE"/>
<path d="M185.224 229.223L208.331 215.931V69L185.224 82.2921V229.223Z" fill="#2B6A94"/>
<path d="M237.171 259.221L185.224 229.224V82.293L260.1 98.9979L237.171 259.221Z" fill="#243D7D"/>
<path d="M144.024 215.933L136.321 211.442L171.072 191.504L178.775 195.815L144.024 215.933Z" fill="#DADADA"/>
<path d="M200.808 195.816V255.81C200.808 259.223 198.479 262.816 193.822 265.51C184.507 270.899 169.64 270.899 160.325 265.51C155.668 262.816 153.339 259.403 153.339 255.81V195.816H200.808Z" fill="#243D7D"/>
<path d="M185.044 239.641V250.957L219.616 230.84V219.523L185.044 239.641Z" fill="#575756"/>
<path d="M136.321 211.441V222.937L185.044 250.958V239.642L136.321 211.441Z" fill="#3C3C3B"/>
<path d="M177.342 222.758V235.152L211.914 215.035V202.641L177.342 222.758Z" fill="#878787"/>
<path d="M142.232 202.461L177.342 222.759L180.387 220.963L183.611 219.166L186.836 217.191L190.06 215.394L193.284 213.418L196.329 211.622L199.554 209.826L202.778 208.03L206.002 206.054L209.227 204.258L212.093 202.641L176.804 182.344L174.117 183.96L170.893 185.757L167.669 187.553L164.444 189.529L161.22 191.325L158.175 193.121L154.771 195.097L151.726 196.893L148.502 198.689L145.278 200.486L142.232 202.461Z" fill="#DADADA"/>
<path d="M142.232 202.461V214.855L177.342 235.152V222.758L142.232 202.461Z" fill="#B2B2B2"/>
<path d="M145.277 200.488L180.387 220.965L183.611 219.168L148.502 198.691L145.277 200.488Z" fill="#575756"/>
<path d="M151.726 196.894L186.835 217.191L190.059 215.395L154.771 195.098L151.726 196.894Z" fill="#575756"/>
<path d="M158.175 193.12L193.284 213.418L196.329 211.622L161.22 191.324L158.175 193.12Z" fill="#575756"/>
<path d="M164.444 189.531L199.554 209.828L202.778 208.032L167.669 187.555L164.444 189.531Z" fill="#575756"/>
<path d="M170.893 185.757L206.002 206.055L209.226 204.258L174.117 183.961L170.893 185.757Z" fill="#575756"/>
<path d="M180.387 222.94V220.964L183.611 219.168V221.144L180.387 222.94Z" fill="#3C3C3B"/>
<path d="M186.835 219.167V217.191L190.059 215.395V217.37L186.835 219.167Z" fill="#3C3C3B"/>
<path d="M193.284 215.573V213.417L196.329 211.621V213.777L193.284 215.573Z" fill="#3C3C3B"/>
<path d="M199.554 211.803V209.827L202.778 208.031V210.007L199.554 211.803Z" fill="#3C3C3B"/>
<path d="M206.002 208.21V206.054L209.226 204.258V206.234L206.002 208.21Z" fill="#3C3C3B"/>
<path d="M185.044 239.643L177.342 235.153L211.914 215.035L219.616 219.526L185.044 239.643Z" fill="#DADADA"/>
<path d="M198.301 167.614C198.301 160.788 203.137 157.914 209.049 161.327C214.96 164.74 219.796 173.002 219.796 180.008C219.796 186.833 214.96 189.707 209.049 186.294C203.137 182.702 198.301 174.439 198.301 167.614Z" fill="#DADADA"/>
<path d="M205.408 167.423L198.428 171.465L205.682 184.065L212.663 180.023L205.408 167.423Z" fill="#3C3C3B"/>
<path d="M203.854 170.846C203.854 167.613 206.182 166.176 209.048 167.792C211.914 169.409 214.243 173.54 214.243 176.773C214.243 180.007 211.914 181.444 209.048 179.827C206.182 178.031 203.854 174.079 203.854 170.846Z" fill="#3C3C3B"/>
<path d="M196.868 174.799C196.868 171.566 199.197 170.129 202.063 171.745C204.929 173.362 207.257 177.493 207.257 180.727C207.257 183.96 204.929 185.397 202.063 183.78C195.793 180.188 196.868 181.984 196.868 174.799Z" fill="#DADADA"/>
<path d="M198.782 173.751L194.128 176.445L199.323 185.467L203.976 182.773L198.782 173.751Z" fill="#9D9D9C"/>
<path d="M197.584 176.057C197.584 173.722 199.196 172.824 201.167 173.902C203.137 174.979 204.749 177.853 204.749 180.188C204.749 182.524 203.137 183.422 201.167 182.344C199.196 181.266 197.584 178.392 197.584 176.057Z" fill="#9D9D9C"/>
<path d="M193.105 178.752C193.105 176.417 194.718 175.519 196.688 176.597C198.658 177.675 200.271 180.549 200.271 182.884C200.271 185.219 198.658 186.117 196.688 185.039C194.718 183.962 193.105 181.088 193.105 178.752Z" fill="#DADADA"/>
<path d="M195.077 178.63L189.647 181.773L192.424 186.596L197.853 183.452L195.077 178.63Z" fill="#9D9D9C"/>
<path d="M194.539 179.829C194.539 178.572 195.435 178.033 196.509 178.751C197.584 179.29 198.48 180.907 198.48 182.164C198.48 183.422 197.584 183.961 196.509 183.242C195.435 182.703 194.539 181.087 194.539 179.829Z" fill="#9D9D9C"/>
<path d="M188.986 183.064C188.986 181.806 189.882 181.267 190.957 181.986C192.032 182.525 192.927 184.141 192.927 185.399C192.927 186.656 192.032 187.195 190.957 186.476C189.882 185.758 188.986 184.321 188.986 183.064Z" fill="#DADADA"/>
<path d="M188.27 181.623C188.27 179.288 189.882 178.39 191.852 179.647C193.823 180.725 195.435 183.599 195.435 185.755C195.435 188.09 193.823 188.988 191.852 187.731C189.882 186.653 188.27 183.958 188.27 181.623Z" fill="#706F6F"/>
<path d="M183.066 179.395L179.653 181.371L187.804 195.526L191.216 193.551L183.066 179.395Z" fill="#3C3C3B"/>
<path d="M181.283 183.061C181.283 179.289 183.791 177.852 187.015 179.648C190.24 181.444 192.747 185.935 192.747 189.707C192.747 193.479 190.24 194.916 187.015 193.119C183.97 191.323 181.283 186.833 181.283 183.061Z" fill="#3C3C3B"/>
<path d="M177.88 185.037C177.88 181.265 180.388 179.828 183.612 181.624C186.836 183.421 189.344 187.911 189.344 191.683C189.344 195.455 186.836 196.892 183.612 195.096C180.567 193.3 177.88 188.809 177.88 185.037Z" fill="#706F6F"/>
<path d="M180.029 186.295C180.029 183.96 181.641 183.062 183.612 184.319C185.582 185.577 187.194 188.271 187.194 190.427C187.194 192.762 185.582 193.66 183.612 192.402C181.641 191.325 180.029 188.63 180.029 186.295Z" fill="#DADADA"/>
<path d="M182 187.552C182 186.474 182.717 186.115 183.612 186.654C184.508 187.193 185.224 188.45 185.224 189.528C185.224 190.606 184.508 190.965 183.612 190.426C182.717 189.887 182 188.45 182 187.552Z" fill="#3C3C3B"/>
<path d="M193.285 198.508L181.642 205.154V212.518L193.285 205.693V198.508Z" fill="#9D9D9C"/>
<path d="M168.565 184.137L157.101 190.962L181.641 205.153L193.285 198.507L168.565 184.137Z" fill="#DADADA"/>
<path d="M157.101 198.146V190.961L181.641 205.151V212.516L157.101 198.146Z" fill="#878787"/>
<path d="M181.821 186.293H169.461V194.376H181.821V186.293Z" fill="#878787"/>
<path d="M171.252 191.861C168.924 193.298 168.924 195.453 171.252 196.89C173.581 198.327 177.522 198.327 180.03 196.89C182.358 195.453 182.358 193.298 180.03 191.861C177.522 190.604 173.581 190.604 171.252 191.861Z" fill="#878787"/>
<path d="M175.551 189.884C178.915 189.884 181.642 188.276 181.642 186.292C181.642 184.308 178.915 182.699 175.551 182.699C172.188 182.699 169.461 184.308 169.461 186.292C169.461 188.276 172.188 189.884 175.551 189.884Z" fill="#DADADA"/>
<path d="M175.55 188.089C177.331 188.089 178.775 187.284 178.775 186.292C178.775 185.3 177.331 184.496 175.55 184.496C173.77 184.496 172.326 185.3 172.326 186.292C172.326 187.284 173.77 188.089 175.55 188.089Z" fill="#878787"/>
<path d="M176.806 182.52H175.193V187.369H176.806V182.52Z" fill="#3C3C3B"/>
<path d="M175.372 187.014C175.014 187.193 175.014 187.552 175.372 187.732C175.73 187.912 176.089 187.912 176.447 187.732C176.805 187.552 176.805 187.193 176.447 187.014C176.089 186.834 175.73 186.834 175.372 187.014Z" fill="#3C3C3B"/>
<path d="M175.372 182.342C175.014 182.521 175.014 182.881 175.372 183.06C175.73 183.24 176.089 183.24 176.447 183.06C176.805 182.881 176.805 182.521 176.447 182.342C176.089 182.162 175.73 182.162 175.372 182.342Z" fill="#575756"/>
<path d="M172.148 182.161H179.492L180.567 174.438H171.073L172.148 182.161Z" fill="#9D9D9C"/>
<path d="M175.731 184.315C177.71 184.315 179.314 183.35 179.314 182.159C179.314 180.969 177.71 180.004 175.731 180.004C173.752 180.004 172.148 180.969 172.148 182.159C172.148 183.35 173.752 184.315 175.731 184.315Z" fill="#9D9D9C"/>
<path d="M172.507 172.461C170.715 173.538 170.715 175.335 172.507 176.412C174.298 177.49 177.343 177.49 179.313 176.412C181.105 175.335 181.105 173.538 179.313 172.461C177.343 171.383 174.298 171.383 172.507 172.461Z" fill="#3C3C3B"/>
<path d="M179.313 166.891H172.147V173.177H179.313V166.891Z" fill="#DADADA"/>
<path d="M173.222 171.562C171.789 172.46 171.789 173.718 173.222 174.436C174.655 175.334 176.984 175.334 178.417 174.436C179.85 173.538 179.85 172.281 178.417 171.562C176.984 170.844 174.655 170.844 173.222 171.562Z" fill="#DADADA"/>
<path d="M173.222 165.455C171.789 166.353 171.789 167.61 173.222 168.329C174.655 169.227 176.984 169.227 178.417 168.329C179.85 167.431 179.85 166.173 178.417 165.455C176.984 164.557 174.655 164.557 173.222 165.455Z" fill="#9D9D9C"/>
<path d="M182.537 158.629H169.103V167.43H182.537V158.629Z" fill="#9D9D9C"/>
<path d="M171.073 164.736C168.386 166.173 168.386 168.688 171.073 170.304C173.76 171.921 178.059 171.741 180.567 170.304C183.254 168.867 183.254 166.352 180.567 164.736C177.88 163.119 173.76 163.119 171.073 164.736Z" fill="#9D9D9C"/>
<path d="M171.073 155.935C168.386 157.372 168.386 159.887 171.073 161.503C173.76 162.94 178.059 162.94 180.567 161.503C183.254 160.066 183.254 157.552 180.567 155.935C177.88 154.319 173.76 154.319 171.073 155.935Z" fill="#9D9D9C"/>
<path d="M185.224 144.98H166.236V157.554H185.224V144.98Z" fill="#3C3C3B"/>
<path d="M175.73 163.121C180.973 163.121 185.224 160.628 185.224 157.553C185.224 154.477 180.973 151.984 175.73 151.984C170.487 151.984 166.236 154.477 166.236 157.553C166.236 160.628 170.487 163.121 175.73 163.121Z" fill="#3C3C3B"/>
<path d="M169.103 141.206C165.341 143.362 165.341 146.775 169.103 148.93C172.864 151.086 178.775 151.086 182.537 148.93C186.299 146.775 186.299 143.362 182.537 141.206C178.775 139.051 172.864 139.051 169.103 141.206Z" fill="#9D9D9C"/>
<path d="M155.667 118.215H142.591V140.129H155.667V118.215Z" fill="#243D7D"/>
<path d="M167.848 156.835L145.457 143.903C142.591 142.286 141.695 139.951 143.128 137.795L152.622 122.707L208.152 90.5547L260.1 98.997V120.552L204.57 152.704L178.596 158.272C174.834 158.991 170.714 158.452 167.848 156.835Z" fill="#243D7D"/>
<path d="M167.848 135.46L145.457 122.528C142.591 120.911 141.695 118.576 143.128 116.42L152.622 101.332L208.331 69L260.279 98.997L204.749 131.149L178.775 136.718C174.834 137.436 170.714 136.897 167.848 135.46Z" fill="#4771DE"/>
<path d="M204.569 131.149L237.171 112.288L260.099 98.9961L272.997 134.202C279.624 152.344 283.028 171.384 283.028 190.783V232.635L260.099 245.927L237.171 259.219V133.843L204.569 152.703V131.149Z" fill="#3357B3"/>
<path opacity="0.2" d="M280.162 231.02V190.785C280.162 171.745 276.758 153.064 270.31 135.281L258.487 103.309L207.436 132.946V147.675L240.037 128.815V254.192L280.162 231.02Z" fill="#1D1D1B"/>
<path d="M185.403 114.262H166.057V118.932H185.403V114.262Z" fill="#3C3C3B"/>
<path d="M168.923 114.984C165.161 117.139 165.161 120.732 168.923 122.887C172.685 125.043 178.954 125.043 182.716 122.887C186.477 120.732 186.477 117.139 182.716 114.984C178.954 112.828 172.685 112.828 168.923 114.984Z" fill="#3C3C3B"/>
<path d="M168.923 110.31C165.161 112.465 165.161 116.058 168.923 118.213C172.685 120.369 178.954 120.369 182.716 118.213C186.477 116.058 186.477 112.465 182.716 110.31C178.954 107.975 172.685 107.975 168.923 110.31Z" fill="#DADADA"/>
<path d="M171.61 109.054C169.281 110.312 169.281 112.647 171.61 113.904C173.938 115.161 177.7 115.161 180.029 113.904C182.358 112.647 182.358 110.312 180.029 109.054C177.7 107.617 173.938 107.617 171.61 109.054Z" fill="#9D9D9C"/>
<path d="M206.439 229.515L200.438 239.938L202.92 241.374L208.921 230.952L206.439 229.515Z" fill="#3C3C3B"/>
<path d="M207.615 232.276C207.615 229.581 205.644 228.504 203.316 229.761C200.987 231.018 199.017 234.431 199.017 237.126C199.017 239.82 200.987 240.898 203.316 239.64C205.644 238.203 207.615 234.97 207.615 232.276Z" fill="#3C3C3B"/>
<path d="M210.123 233.713C210.123 231.019 208.152 229.941 205.824 231.199C203.495 232.636 201.524 235.869 201.524 238.563C201.524 241.257 203.495 242.335 205.824 241.078C208.152 239.641 210.123 236.408 210.123 233.713Z" fill="#706F6F"/>
<path d="M209.943 235.508C209.943 233.891 208.869 233.173 207.436 234.071C206.002 234.969 204.928 236.945 204.928 238.562C204.928 240.178 206.002 240.897 207.436 239.998C208.689 239.28 209.943 237.125 209.943 235.508Z" fill="#3C3C3B"/>
<path d="M211.116 230.695L203.683 243.605L204.768 244.234L212.202 231.323L211.116 230.695Z" fill="#706F6F"/>
<path d="M212.631 234.073C212.631 230.66 210.302 229.403 207.436 231.019C204.57 232.636 202.241 236.767 202.241 240.18C202.241 243.593 204.57 244.85 207.436 243.234C210.302 241.437 212.631 237.306 212.631 234.073Z" fill="#575756"/>
<path d="M213.885 234.612C213.885 231.199 211.556 229.942 208.69 231.558C205.824 233.175 203.495 237.306 203.495 240.719C203.495 244.132 205.824 245.389 208.69 243.773C211.377 242.156 213.885 238.025 213.885 234.612Z" fill="#9D9D9C"/>
<path d="M212.272 235.511C212.272 233.176 210.66 232.098 208.511 233.355C206.361 234.613 204.749 237.487 204.749 239.822C204.749 242.157 206.361 243.235 208.511 241.977C210.66 240.899 212.272 238.025 212.272 235.511Z" fill="#DADADA"/>
<path d="M209.407 237.308C209.407 236.769 209.048 236.589 208.69 236.949C208.332 237.308 207.974 237.847 207.974 238.206C207.974 238.745 208.332 238.924 208.69 238.565C209.048 238.206 209.407 237.847 209.407 237.308Z" fill="#575756"/>
<path d="M213.413 233.196L212.338 235.062L217.922 238.296L218.997 236.43L213.413 233.196Z" fill="#3C3C3B"/>
<path d="M213.705 233.714C213.705 233.175 213.347 232.996 212.989 233.355C212.631 233.534 212.272 234.253 212.272 234.612C212.272 235.151 212.631 235.331 212.989 234.971C213.347 234.792 213.705 234.253 213.705 233.714Z" fill="#3C3C3B"/>
<path d="M219.258 236.948C219.258 236.41 218.9 236.23 218.542 236.589C218.183 236.769 217.825 237.487 217.825 237.847C217.825 238.385 218.183 238.565 218.542 238.206C218.9 238.026 219.258 237.308 219.258 236.948Z" fill="#575756"/>
<path d="M153.268 214.091L149.545 216.246L158.501 231.801L162.224 229.646L153.268 214.091Z" fill="#3C3C3B"/>
<path d="M151.548 218.085C151.548 214.133 154.414 212.337 157.817 214.492C161.221 216.468 164.087 221.318 164.087 225.449C164.087 229.401 161.221 231.197 157.817 229.042C154.235 227.066 151.548 222.216 151.548 218.085Z" fill="#3C3C3B"/>
<path d="M147.786 220.241C147.786 216.289 150.652 214.493 154.056 216.649C157.459 218.625 160.325 223.474 160.325 227.606C160.325 231.557 157.459 233.354 154.056 231.198C150.473 229.222 147.786 224.372 147.786 220.241Z" fill="#706F6F"/>
<path d="M147.965 222.935C147.965 220.42 149.756 219.522 151.906 220.779C154.055 222.036 155.847 225.09 155.847 227.425C155.847 229.94 154.055 230.838 151.906 229.581C149.756 228.503 147.965 225.449 147.965 222.935Z" fill="#3C3C3B"/>
<path d="M146.157 215.477L144.45 216.465L155.556 235.753L157.263 234.766L146.157 215.477Z" fill="#706F6F"/>
<path d="M143.845 220.6C143.845 215.571 147.427 213.595 151.726 216.11C156.025 218.624 159.608 224.731 159.608 229.761C159.608 234.79 156.025 236.766 151.726 234.251C147.427 231.916 143.845 225.63 143.845 220.6Z" fill="#575756"/>
<path d="M142.054 221.678C142.054 216.649 145.636 214.673 149.935 217.188C154.234 219.702 157.817 225.81 157.817 230.839C157.817 235.868 154.234 237.844 149.935 235.33C145.636 232.815 142.054 226.708 142.054 221.678Z" fill="#9D9D9C"/>
<path d="M144.383 222.936C144.383 219.344 146.891 217.907 149.936 219.703C152.981 221.499 155.489 225.81 155.489 229.403C155.489 232.995 152.981 234.432 149.936 232.636C146.891 231.019 144.383 226.529 144.383 222.936Z" fill="#DADADA"/>
<path d="M148.861 225.629C148.861 224.91 149.399 224.551 149.936 224.91C150.653 225.27 151.011 226.168 151.011 226.886C151.011 227.605 150.473 227.964 149.936 227.605C149.399 227.246 148.861 226.347 148.861 225.629Z" fill="#575756"/>
<path d="M142.737 219.428L134.36 224.277L135.973 227.077L144.349 222.227L142.737 219.428Z" fill="#3C3C3B"/>
<path d="M142.233 220.242C142.233 219.524 142.771 219.165 143.308 219.524C143.846 219.883 144.383 220.781 144.383 221.5C144.383 222.218 143.846 222.577 143.308 222.218C142.771 221.859 142.233 220.961 142.233 220.242Z" fill="#3C3C3B"/>
<path d="M133.993 225.094C133.993 224.375 134.531 224.016 135.068 224.375C135.605 224.735 136.143 225.633 136.143 226.351C136.143 227.07 135.605 227.429 135.068 227.07C134.531 226.71 133.993 225.812 133.993 225.094Z" fill="#575756"/>
<path d="M79.3583 182.701C79.1791 183.599 79 184.677 79 185.575C79 190.245 79.8956 196.353 80.9704 206.052C81.5078 208.926 87.2399 208.746 87.4191 206.052C88.1356 195.993 87.0608 210.722 89.0312 186.294L90.106 179.827L90.4643 177.313L90.6434 176.414L91.0016 173.72L91.8973 167.972C92.9721 161.685 84.3739 160.428 83.12 167.254L81.8661 172.283L81.3287 174.798L81.1495 175.696L80.6122 178.211L79.3583 182.701Z" fill="#E65624"/>
<path d="M79.3583 182.701C79.1791 183.599 79 184.677 79 185.575C79 190.245 79.8956 196.353 80.9704 206.052C81.5078 208.926 87.2399 208.746 87.4191 206.052C88.1356 195.993 87.0608 210.722 89.0312 186.294L90.106 179.827L90.4643 177.313L90.6434 176.414L91.0016 173.72L91.8973 167.972C92.9721 161.685 84.3739 160.428 83.12 167.254L81.8661 172.283L81.3287 174.798L81.1495 175.696L80.6122 178.211L79.3583 182.701Z" fill="#E65624"/>
<path opacity="0.3" d="M87.5982 204.616C87.0608 206.951 85.986 211.442 84.3738 213.418C83.8365 198.329 82.0452 189.887 82.4034 185.396C82.5826 183.959 83.1199 181.624 86.3443 169.051C86.8816 172.464 90.106 173.541 90.6434 176.954C91.3599 180.906 92.0764 184.858 91.3599 188.809C91.1807 190.426 90.6434 192.042 90.106 193.659C89.0312 197.252 88.3147 201.024 87.5982 204.616Z" fill="#1D1D1B"/>
<path d="M105.332 164.557C105.153 164.916 104.795 165.276 104.257 165.455C104.257 165.455 104.257 165.455 104.078 165.455C102.108 166.353 99.2417 165.994 97.6295 164.737C96.0174 163.479 96.1965 161.863 97.9878 160.965C98.346 160.785 98.8834 160.605 99.4208 160.605C99.5999 160.605 99.9582 160.605 100.316 160.605C100.496 160.605 100.675 160.605 100.675 160.605C100.854 160.605 101.212 160.605 101.391 160.605C102.466 160.785 103.72 161.144 104.436 161.683C104.974 162.042 105.332 162.581 105.511 163.12C105.511 163.3 105.511 163.3 105.511 163.479C105.69 163.839 105.511 164.198 105.332 164.557Z" fill="#FFBB7D"/>
<path d="M106.944 151.984L97.9877 150.906L96.5547 162.582L105.511 165.276L106.944 151.984Z" fill="#FFBB7D"/>
<path opacity="0.1" d="M105.69 163.483C105.332 163.842 105.511 164.201 105.332 164.56C105.332 164.92 104.795 165.279 104.257 165.459C102.108 164.201 101.033 162.585 100.854 160.609C100.675 160.07 100.675 159.351 100.675 158.812L106.765 160.07L106.586 163.483H105.69Z" fill="#21211F"/>
<path d="M110.527 157.373L109.81 157.553C109.81 158.092 109.81 160.427 109.81 160.427C109.631 161.864 108.915 163.66 107.303 163.48H106.765H105.87H105.511C104.257 163.301 102.645 162.223 101.57 160.606C101.212 160.068 100.854 159.349 100.854 158.81C100.675 158.271 100.675 157.733 100.675 157.014H100.496C99.2418 156.834 96.734 157.733 96.3757 156.475C95.8383 154.859 95.6592 153.242 95.6592 151.446C95.6592 150.727 95.6592 150.548 95.8383 149.829C97.0922 143.902 101.391 144.081 104.078 144.261C106.407 144.44 108.736 145.698 109.81 148.213C110.348 149.29 110.706 150.727 110.706 152.344C110.527 152.883 110.348 153.242 110.348 153.242L111.423 156.296C111.243 156.834 111.064 157.373 110.527 157.373Z" fill="#FFBB7D"/>
<path d="M97.0922 158.631C102.466 160.068 99.6 153.781 99.6 153.781C99.6 153.781 100.675 155.757 101.212 156.296C102.108 156.296 102.108 156.296 102.824 156.296C103.362 149.47 102.287 146.417 109.631 148.213C111.064 148.033 112.139 143.363 103.003 143.184C99.0626 143.184 95.8383 145.159 94.9426 149.111C94.2261 153.063 94.047 157.374 97.0922 158.631Z" fill="black"/>
<path d="M98.7041 154.14C98.7041 155.398 99.5997 156.834 100.495 157.014C101.391 157.014 101.212 155.936 101.391 154.679C101.391 153.781 101.749 152.703 100.854 152.344C99.958 152.164 98.7041 152.344 98.7041 154.14Z" fill="#FFBB7D"/>
<path d="M85.4489 198.865C85.9863 199.584 86.882 200.302 87.7776 200.841C87.9567 201.021 88.1359 201.021 88.315 201.2C88.8524 201.56 89.5689 201.919 90.2854 202.278C91.7185 202.997 93.1515 203.535 94.5845 203.895C97.6297 204.793 101.033 205.332 103.362 205.152C103.541 205.152 103.72 205.152 103.899 205.152C105.332 204.972 106.586 204.613 107.124 203.715C107.303 203.535 107.303 203.535 107.303 203.356C108.019 201.739 108.736 198.326 109.452 194.195C109.81 192.399 109.99 190.423 110.348 188.447C110.527 187.729 110.527 187.01 110.706 186.292C111.602 179.107 112.318 172.102 112.677 170.305C112.318 170.126 112.139 169.946 111.781 169.766C111.781 169.766 111.781 169.766 111.602 169.766C108.198 167.252 106.228 165.635 103.899 164.018C103.72 163.839 103.362 163.659 103.183 163.48C103.004 163.3 102.824 163.3 102.645 163.12C102.466 163.12 102.287 163.12 102.287 162.941C100.317 162.402 95.301 161.145 95.301 161.145C94.9428 161.145 88.4941 162.582 87.0611 162.941C86.7028 165.455 86.3446 167.611 86.1655 169.766C85.0907 177.49 84.7324 182.879 84.7324 194.914C84.7324 195.632 84.7324 197.967 85.4489 198.865Z" fill="#E65624"/>
<path d="M84.374 206.05C85.6279 205.87 86.5236 206.409 87.2401 207.307C87.9566 208.026 87.9566 209.283 87.7775 210.361C87.5983 210.9 87.5983 211.439 87.5983 211.978C87.7775 212.696 88.494 213.415 88.1357 214.133C87.9566 214.852 87.061 214.852 86.7027 214.313C85.8071 213.055 85.9862 212.516 85.8071 212.157C85.6279 211.618 84.9114 211.259 84.5532 210.72C84.374 210.181 84.374 209.283 84.5532 208.565L84.374 206.05Z" fill="#FFD2A1"/>
<path d="M80.9704 214.313C80.6121 215.212 80.7912 216.289 81.5078 216.289C81.3286 217.008 82.0451 217.906 82.7617 217.367C82.9408 218.086 84.1947 217.547 84.5529 217.008C85.0903 216.11 85.2695 215.93 85.4486 215.75C85.8069 215.032 86.1651 214.313 86.1651 213.775C86.3442 213.056 86.5234 212.338 86.3442 211.619C86.1651 209.643 86.3442 207.667 85.0903 206.23C84.1947 206.23 83.4782 206.23 82.2243 207.308C81.3286 208.027 81.3286 208.925 81.3286 210.182C81.3286 211.26 81.1495 211.619 80.6121 212.697C80.0747 213.775 80.6121 214.493 80.9704 214.313Z" fill="#FFD2A1"/>
<path d="M80.9704 214.313C80.6121 215.212 80.7912 216.289 81.5078 216.289C81.3286 217.008 82.0451 217.906 82.7617 217.367C82.9408 218.086 84.1947 217.547 84.5529 217.008C85.0903 216.11 85.2695 215.93 85.4486 215.75C85.8069 215.032 86.1651 214.313 86.1651 213.775C86.3442 213.056 86.5234 212.338 86.3442 211.619C86.1651 209.643 86.3442 207.667 85.0903 206.23C84.1947 206.23 83.4782 206.23 82.2243 207.308C81.3286 208.027 81.3286 208.925 81.3286 210.182C81.3286 211.26 81.1495 211.619 80.6121 212.697C80.0747 213.775 80.6121 214.493 80.9704 214.313Z" fill="#FFBB7D"/>
<path d="M84.374 206.05C85.6279 205.87 86.5236 206.409 87.2401 207.307C87.9566 208.026 87.9566 209.283 87.7775 210.361C87.5983 210.9 87.5983 211.439 87.5983 211.978C87.7775 212.696 88.494 213.415 88.1357 214.133C87.9566 214.852 87.061 214.852 86.7027 214.313C85.8071 213.055 85.9862 212.516 85.8071 212.157C85.6279 211.618 84.9114 211.259 84.5532 210.72C84.374 210.181 84.374 209.283 84.5532 208.565L84.374 206.05Z" fill="#FFCEA1"/>
<path d="M94.9422 262.634C93.6883 263.352 92.6135 264.071 91.5387 264.609C89.3892 265.867 87.4187 266.765 85.4483 267.304C82.224 268.381 80.6118 267.483 80.2536 266.046C79.8953 263.711 80.2536 261.915 80.791 259.76L81.1492 257.963L81.6866 254.371L88.6726 253.832L88.4935 254.551L88.1353 257.245L87.9561 257.784H88.4935L90.8222 257.963L92.2552 257.784C93.33 257.604 94.2256 257.963 94.9422 258.861C96.1961 260.298 95.8378 262.095 94.9422 262.634Z" fill="#1D1D1B"/>
<path d="M113.93 272.692C110.348 274.848 107.303 276.464 104.437 277.362C103.183 277.722 102.108 277.901 101.212 277.722C100.138 277.542 99.421 277.003 99.2419 275.925C98.8836 273.59 99.2419 271.794 99.7793 269.639V264.789L103.183 264.429L107.303 263.891L107.124 266.944V267.842L109.99 268.022L111.423 267.842C112.318 267.663 113.393 268.022 113.93 268.92C115.184 270.357 114.647 272.153 113.93 272.692Z" fill="#1D1D1B"/>
<path d="M91.8975 204.793L92.0766 205.332L94.9427 220.241L96.3757 227.425L98.3461 238.023C97.4505 258.141 98.7044 245.747 97.8087 265.685C97.9878 267.302 98.7044 268.2 99.9583 268.559C100.854 268.918 101.75 268.918 102.824 268.918C104.436 268.739 106.049 268.02 107.303 267.122C108.198 266.404 108.736 265.505 108.736 264.607C108.736 261.554 109.989 244.13 110.348 238.742C110.348 238.382 110.348 238.203 110.348 238.023C110.348 237.664 110.348 237.484 110.348 237.305C110.348 236.945 110.348 236.766 110.348 236.407L107.661 210.361V209.643V209.284V208.924V208.565V208.206V207.847V207.308V206.41H106.944H106.407L105.153 206.23H104.078H103.72L97.0922 205.691L95.1218 205.152H94.7635L91.8975 204.793Z" fill="#E65624"/>
<path d="M99.0622 206.053L98.883 207.31L97.2709 220.243L96.3752 227.428L95.4796 234.254C94.7631 238.205 93.33 247.546 90.6431 254.731C90.464 255.629 89.7475 256.527 88.6727 257.066C88.4936 257.245 88.4936 257.245 88.3144 257.245C86.1649 258.503 83.1197 259.042 81.1493 257.784C80.0745 257.066 79.358 255.808 79.7162 253.833C80.2536 251.138 82.9406 235.691 84.1945 230.302L84.911 217.19C84.911 217.01 84.911 216.83 84.911 216.651C84.5527 215.573 84.3736 214.495 84.3736 213.418V213.238C84.3736 212.879 84.3736 212.699 84.3736 212.34C84.3736 212.16 84.3736 211.981 84.3736 211.801C84.3736 210.544 84.3736 209.286 84.5527 208.208C84.5527 208.029 84.5527 207.849 84.5527 207.67C84.5527 207.131 84.7319 206.592 84.7319 206.233C84.911 204.436 85.2692 202.64 85.8066 201.383L87.5979 201.922L87.9562 202.101L90.1057 202.82L94.9422 204.616L96.7335 205.335L99.0622 206.053Z" fill="#E65624"/>
<path d="M85.4482 198.867C85.4482 199.406 85.4482 200.124 85.4482 200.663C85.4482 200.843 85.6274 201.022 85.6274 201.202C85.9856 201.92 86.523 202.459 87.4187 203.178L87.5978 203.357C88.6726 204.076 90.2847 204.794 91.8969 205.513C94.0464 206.411 96.3751 206.95 98.7038 207.309C100.137 207.489 101.391 207.668 102.645 207.489C102.824 207.489 103.003 207.489 103.182 207.489C104.794 207.309 106.227 206.95 107.123 206.231C107.123 205.692 107.123 204.615 107.123 203.896C107.123 203.537 107.123 203.357 107.123 203.357C106.406 203.716 105.511 204.076 104.615 204.255C104.436 204.255 104.078 204.255 103.899 204.435C101.212 204.794 97.629 204.255 94.4047 203.357C92.9717 202.998 91.7178 202.459 90.4639 201.741C89.7473 201.381 89.0308 201.022 88.3143 200.483C88.3143 200.124 87.956 199.944 87.7769 199.765C86.8813 199.046 85.9856 198.328 85.4482 197.43C85.4482 197.969 85.4482 198.507 85.4482 198.867Z" fill="#E65624"/>
<path d="M94.405 163.299C94.5842 165.275 99.5998 168.329 106.228 165.096C105.869 164.916 105.511 164.198 105.332 163.838C104.795 162.94 103.899 162.581 102.824 162.401C98.8833 161.862 97.9876 161.144 97.2711 159.527C96.1963 160.425 94.0468 161.503 94.405 163.299Z" fill="#E65624"/>
<path opacity="0.3" d="M95.1215 259.041C96.1963 260.298 95.6589 262.094 94.9424 262.633C93.6885 263.352 92.6137 264.07 91.5389 264.609C90.1059 262.094 89.0311 259.759 88.6729 257.963L91.0015 258.143L92.4346 257.963C93.5093 257.783 94.5841 258.143 95.1215 259.041Z" fill="#1D1D1B"/>
<path opacity="0.3" d="M103.003 264.427C103.003 266.223 102.824 267.481 102.466 268.918C101.928 271.612 101.212 274.127 101.032 277.719C99.9577 277.539 99.2412 277.001 99.0621 275.923C98.7038 273.588 99.0621 271.792 99.5994 269.636V268.558C98.5247 268.019 97.629 267.121 97.4499 265.684C98.3455 245.746 97.0916 258.32 97.9873 238.022L96.0169 227.425L95.4795 234.25C94.763 238.202 93.3299 247.542 90.643 254.727C90.4639 255.626 89.7473 256.524 88.6726 257.062V256.883C88.6726 256.164 88.6726 255.266 88.6726 254.548C88.6726 254.368 88.6726 254.009 88.6726 253.829C89.0308 250.416 89.3891 246.824 89.7473 243.232C90.4639 232.275 90.643 225.449 88.1352 214.312C88.1352 214.133 88.1352 213.953 87.9561 213.773C87.9561 213.953 88.1352 214.133 88.1352 214.133C89.7473 217.725 92.2552 219.881 94.9421 220.24C95.6586 220.419 96.3751 220.419 97.2708 220.24C97.9873 220.06 98.7038 219.881 99.4203 219.521C98.5247 225.629 100.674 229.76 101.749 233.891C102.107 235.328 102.466 236.586 102.286 238.022C102.107 239.28 100.495 246.644 101.57 251.674C102.824 257.422 103.182 261.373 103.003 264.427Z" fill="#1D1D1B"/>
<path opacity="0.3" d="M93.5099 195.273C93.689 198.686 93.8682 202.279 95.3012 205.512C93.689 204.434 91.8977 203.536 90.1064 202.997C93.5099 193.657 91.1812 182.879 94.0473 173.359C93.5099 180.724 93.3308 187.909 93.5099 195.273Z" fill="#1D1D1B"/>
<path d="M129.156 179.647C128.081 180.006 126.828 179.467 126.29 178.39C125.753 177.492 125.753 176.234 126.111 175.157C126.469 174.079 127.186 173.181 127.902 172.462C130.052 170.127 132.56 168.331 134.172 165.637C134.351 165.277 134.53 165.098 134.888 165.098C135.247 165.098 135.605 165.996 135.426 166.355C135.247 167.792 132.918 170.307 133.097 170.486C133.814 170.846 133.634 171.205 133.814 171.744C134.172 171.744 134.709 172.642 134.53 173.001C135.067 173.181 134.888 173.899 134.888 174.079C134.888 174.797 135.067 175.157 134.888 175.875C134.709 176.594 133.634 177.312 133.097 178.03C132.739 178.39 132.201 178.39 132.022 178.03C132.022 177.851 130.589 178.929 130.052 179.467C129.873 179.288 129.514 179.467 129.156 179.647Z" fill="#FFBB7D"/>
<path opacity="0.3" d="M102.646 207.129L102.825 207.309C103.362 208.028 103.72 208.926 104.079 209.824C107.84 219.523 109.811 229.942 109.811 240.36C109.811 239.641 109.99 239.102 109.99 238.384C109.99 238.025 109.99 237.845 109.99 237.665C109.99 237.306 109.99 237.126 109.99 236.947C109.99 236.588 109.99 236.408 109.99 236.049L107.661 210.363V209.644V209.285V208.926V208.566V208.207V207.848V207.309V206.411C107.661 205.872 107.661 204.794 107.661 204.076C107.84 203.896 107.84 203.896 107.84 203.717C108.557 202.1 109.273 198.687 109.99 194.556C111.781 196.352 114.647 196.532 116.797 194.915L117.692 193.837C116.618 194.017 115.543 194.017 114.647 193.658C114.468 193.658 114.11 193.478 113.931 193.299C112.318 192.221 111.602 190.425 110.885 188.628C110.706 188.449 110.706 188.089 110.527 187.73C110.527 187.551 110.348 187.191 110.348 187.012C108.915 183.24 107.303 179.647 105.332 176.234C105.512 178.031 105.691 179.647 105.87 181.443C106.407 185.754 106.586 190.245 106.586 194.736C106.586 196.532 106.586 198.328 106.407 200.124C106.228 201.561 105.691 202.998 104.974 204.435C104.795 204.794 104.616 205.154 104.437 205.513C104.258 205.692 104.079 205.872 104.079 206.231C103.362 206.231 103.004 206.77 102.646 207.129Z" fill="#1D1D1B"/>
<path d="M116.438 189.347L114.468 173.72V173.361C114.11 170.667 111.423 168.691 108.736 169.05C106.049 169.409 104.078 172.104 104.437 174.798L107.303 189.707C107.84 192.221 108.736 194.916 111.423 194.556C114.289 194.197 116.797 192.042 116.438 189.347Z" fill="#E65624"/>
<path d="M109.452 194.018L109.631 194.198L109.81 194.378C111.601 196.174 114.467 196.353 116.617 194.737C116.617 194.737 126.469 187.372 130.41 179.11C130.231 178.391 127.723 175.876 126.111 176.056C125.931 176.056 125.931 176.056 125.752 176.056L115.721 183.061L111.064 186.295L110.168 186.833C108.019 188.63 107.66 191.863 109.452 194.018Z" fill="#E65624"/>
</g>
<defs>
<linearGradient id="paint0_linear_5138_893" x1="188" y1="0" x2="188" y2="376" gradientUnits="userSpaceOnUse">
<stop stop-color="#E3ECFA" stop-opacity="0.27"/>
<stop offset="1" stop-color="#DAE7FF" stop-opacity="0.22"/>
</linearGradient>
<clipPath id="clip0_5138_893">
<rect width="218" height="238" fill="white" transform="translate(79 69)"/>
</clipPath>
</defs>
</svg>
