<svg width="26" height="26" viewBox="0 0 26 26" fill="none" xmlns="http://www.w3.org/2000/svg">
<circle cx="13" cy="13" r="13" fill="#F4FDFE"/>
<g clip-path="url(#clip0_707_18770)">
<path fill-rule="evenodd" clip-rule="evenodd" d="M6.4051 18.9496V13.4779C6.11944 13.5922 5.85208 13.5947 5.62989 13.516C5.45654 13.455 5.31004 13.3458 5.20261 13.2049C5.09518 13.0639 5.02682 12.8925 5.00606 12.7033C4.97432 12.41 5.05856 12.0785 5.29906 11.7674C5.31127 11.7522 5.32469 11.7369 5.34056 11.7242L12.3065 6.06964C12.3968 5.9833 12.536 5.97441 12.6361 6.05568L19.6166 11.7001C19.6276 11.709 19.6374 11.7179 19.6471 11.7293C19.9707 12.0912 20.0512 12.4925 19.9731 12.8315C19.934 12.9992 19.8571 13.149 19.7509 13.2735C19.6447 13.3979 19.5092 13.4944 19.3554 13.5515C19.1112 13.643 18.8207 13.6404 18.5265 13.4957V18.9484H19.5031V19.9985H5.49805V18.9484H6.4051V18.9496ZM17.8428 18.9496V13.1846C17.8428 13.0563 13.0536 9.11853 12.5262 8.6906C11.9659 9.13377 7.08997 13.0398 7.08997 13.2049V18.9496H17.8428ZM12.6788 12.7376C12.5189 12.6728 12.3529 12.6385 12.1819 12.6385C11.9256 12.6385 11.7144 12.7236 11.5483 12.8938L10.1188 14.3795L10.2677 14.5357L9.72569 15.1033L8.81253 14.1522L9.35456 13.5884L9.52303 13.7598L10.944 12.283C11.1394 12.0811 11.3494 11.9808 11.574 11.9808C11.9512 11.9795 12.3187 12.2322 12.6788 12.7376ZM14.847 12.3173C15.002 12.3173 15.1509 12.3452 15.2901 12.3947L14.9373 12.7922C14.1364 13.6938 15.0398 14.2157 15.837 13.596L16.1447 13.3573C16.1727 13.4703 16.1886 13.5896 16.1886 13.7115C16.1886 14.4823 15.588 15.1071 14.847 15.1071C14.6052 15.1071 14.3782 15.0411 14.1828 14.9242L13.5309 15.6442C14.1438 16.255 14.7578 16.8658 15.3707 17.4754L14.5381 18.3414C13.9582 17.7116 13.3783 17.083 12.7984 16.4531L11.6558 17.7141C11.5691 17.8677 11.408 17.9719 11.2236 17.9719C10.9477 17.9719 10.7231 17.7395 10.7231 17.4512C10.7231 17.3268 10.7646 17.2125 10.8354 17.1236H10.8342L10.8391 17.1198C10.8757 17.0741 10.9184 17.036 10.9672 17.0055L12.2515 15.8601L10.6694 14.1331L11.3262 13.45C11.9366 14.0595 12.431 14.5484 13.0414 15.1566L13.7531 14.5217C13.5969 14.2931 13.5053 14.0138 13.5053 13.7128C13.5053 12.942 14.1059 12.3173 14.847 12.3173ZM10.4679 12.5611L9.81481 13.2404L9.55477 12.97L10.2079 12.2906L10.4679 12.5611Z" fill="#FF6A00"/>
</g>
<defs>
<clipPath id="clip0_707_18770">
<rect width="15" height="14" fill="white" transform="translate(5 6)"/>
</clipPath>
</defs>
</svg>
