<svg width="1440" height="103" viewBox="0 0 1440 103" fill="none" xmlns="http://www.w3.org/2000/svg">
<rect width="1440" height="82" fill="url(#paint0_linear_932_8773)"/>
<rect width="1440" height="85" fill="url(#paint1_linear_932_8773)"/>
<path d="M0 79.073L0 103L1440 103V60.2504C1403.41 64.5041 1318.39 74.3514 1271.03 79.711C1211.84 86.4106 1137.58 90.2389 1027.8 95.0243C918.027 99.8097 729.686 79.073 717.848 78.1159C706.009 77.1588 605.919 61.8455 414.35 58.3362C261.094 55.5288 74.2601 70.991 0 79.073Z" fill="#F5F7FB"/>
<path opacity="0.6" d="M0 84.7368L0 95L1440 95V54.974C1403.41 58.9567 1318.39 68.1766 1271.03 73.1948C1211.84 79.4675 1137.58 83.052 1027.8 87.5325C918.027 92.013 729.686 72.5974 717.848 71.7013C706.009 70.8052 605.919 56.4676 414.35 53.1818C261.094 50.5533 74.2601 77.1697 0 84.7368Z" fill="#F5F7FB"/>
<path opacity="0.15" d="M1440 66.073V90L0 90V63.2504C36.5919 67.5041 121.614 61.3514 168.969 66.711C228.161 73.4106 302.422 77.2389 412.197 82.0243C521.973 86.8097 710.314 66.073 722.152 65.1159C733.991 64.1588 834.081 48.8455 1025.65 45.3363C1178.91 42.5288 1365.74 57.991 1440 66.073Z" fill="#F5F7FB"/>
<path opacity="0.2" d="M1440 78.1364V101L0 101V60.1504C36.5657 64.215 122.561 73.6247 169.881 78.7461C229.031 85.1479 303.238 88.8061 412.935 93.3788C522.632 97.9515 710.838 78.1364 722.668 77.2219C734.498 76.3073 834.516 61.6746 1025.95 58.3213C1179.09 55.6386 1365.79 70.4136 1440 78.1364Z" fill="#F5F7FB"/>
<defs>
<linearGradient id="paint0_linear_932_8773" x1="-175.516" y1="-11.9675" x2="-166.864" y2="143.144" gradientUnits="userSpaceOnUse">
<stop stop-color="#5264F9"/>
<stop offset="0.984438" stop-color="#3FAAC6"/>
</linearGradient>
<linearGradient id="paint1_linear_932_8773" x1="-175.516" y1="-12.4053" x2="-166.222" y2="148.344" gradientUnits="userSpaceOnUse">
<stop stop-color="#5264F9"/>
<stop offset="0.984438" stop-color="#3FAAC6"/>
</linearGradient>
</defs>
</svg>
