<svg width="103" height="30" viewBox="0 0 103 30" fill="none" xmlns="http://www.w3.org/2000/svg">
<path d="M16.1151 0C12.9278 0 9.81213 0.876874 7.16202 2.51973C4.51191 4.16259 2.44641 6.49765 1.22669 9.22963C0.00698156 11.9616 -0.312149 14.9678 0.309654 17.868C0.931458 20.7683 2.46627 23.4323 4.72 25.5233C6.97374 27.6143 9.84517 29.0382 12.9712 29.6151C16.0972 30.192 19.3374 29.8959 22.2821 28.7643C25.2267 27.6327 27.7435 25.7164 29.5143 23.2577C31.285 20.7989 32.2302 17.9083 32.2302 14.9512C32.2302 10.9859 30.5323 7.183 27.5102 4.37911C24.488 1.57521 20.3891 0 16.1151 0ZM14.3083 16.6222C14.3083 18.8148 12.9565 20.8376 10.8009 21.7452C9.96256 22.1032 9.04086 22.2604 8.12011 22.2025C8.12011 22.2025 3.17278 22.3661 2.28929 16.7928L5.9114 16.7111C5.9114 16.7111 5.82324 18.9238 8.29737 19.0056C8.29737 19.0056 10.5061 19.2519 10.6824 17.3663L10.7744 10.9742H9.44723L9.53539 7.69547H14.3064L14.3083 16.6222ZM21.7648 22.2439L21.7051 18.8711C24.0551 18.8711 26.4022 17.1121 26.4022 14.9354C26.4022 13.8885 25.954 12.8846 25.1561 12.1443C24.3583 11.4041 23.2761 10.9883 22.1478 10.9883H20.3951V21.9141L16.5957 18.8807V10.5204H15.624V7.66293H21.7648C26.278 7.66293 29.9361 10.9267 29.9361 14.9521C29.9361 18.9775 26.278 22.2421 21.7648 22.2421V22.2439Z" fill="white"/>
<path d="M37.3467 8.85156V21.634L43.5621 15.664L49.9995 21.634V8.85156H47.1871L47.0387 15.2428L43.6724 11.8714L40.1576 15.2428L40.2325 8.85156H37.3467Z" fill="white"/>
<path d="M58.6431 8.46094C57.239 8.46121 55.8665 8.84776 54.6991 9.5717C53.5318 10.2956 52.6221 11.3245 52.0849 12.5281C51.5478 13.7317 51.4074 15.0561 51.6815 16.3337C51.9556 17.6113 52.6319 18.7849 53.6249 19.7059C54.6178 20.627 55.8829 21.2542 57.26 21.5082C58.6372 21.7623 60.0646 21.6318 61.3618 21.1332C62.659 20.6346 63.7677 19.7903 64.5478 18.7071C65.3278 17.624 65.7442 16.3505 65.7442 15.0478C65.7442 14.1827 65.5605 13.3261 65.2036 12.5268C64.8467 11.7276 64.3236 11.0014 63.6642 10.3897C63.0048 9.77803 62.222 9.29288 61.3604 8.96194C60.4989 8.631 59.5755 8.46076 58.6431 8.46094ZM58.6431 18.7395C57.8562 18.7392 57.087 18.5224 56.4329 18.1166C55.7787 17.7108 55.2689 17.1342 54.968 16.4596C54.6671 15.785 54.5885 15.0428 54.7422 14.3268C54.8959 13.6108 55.275 12.9531 55.8315 12.4369C56.388 11.9208 57.097 11.5693 57.8688 11.427C58.6406 11.2847 59.4406 11.3579 60.1676 11.6373C60.8946 11.9168 61.5159 12.3899 61.9531 12.997C62.3902 13.6041 62.6236 14.3177 62.6236 15.0478C62.6224 16.0264 62.2024 16.9645 61.456 17.656C60.7096 18.3475 59.6979 18.7357 58.6431 18.7353V18.7395Z" fill="white"/>
<path d="M74.9576 16.1363H75.0982C77.1718 16.1363 78.8518 14.5007 78.8518 12.4842C78.8518 10.4677 77.1648 8.83203 75.0982 8.83203H67.0088V11.5607H68.4807V21.6523H71.0591V15.7646L76.7247 21.6523H80.5515L74.9576 16.1363ZM70.7934 14.0272V11.3481H74.6581C75.031 11.3481 75.3886 11.4855 75.6522 11.7301C75.9159 11.9747 76.064 12.3065 76.064 12.6524C76.064 12.9984 75.9159 13.3301 75.6522 13.5747C75.3886 13.8193 75.031 13.9568 74.6581 13.9568L70.7934 14.0272Z" fill="white"/>
<path d="M80.2939 8.82943V11.3507H81.503V21.6484H84.3471V15.7633H84.7745L92.1679 21.5884V18.8076L88.0445 15.0433L92.1679 11.5607V8.07031L84.7028 14.6637H84.2768L84.3471 8.82943H80.2939Z" fill="white"/>
<path d="M102.568 11.3756V8.85156H96.9752C95.0177 8.85156 93.4404 10.5757 93.4404 12.7024C93.4404 14.8291 95.0275 16.5519 96.9752 16.5519L98.744 16.4983C98.9297 16.4905 99.1152 16.5179 99.2893 16.5789C99.4634 16.64 99.6224 16.7334 99.7568 16.8534C99.8911 16.9735 99.9981 17.1178 100.071 17.2776C100.144 17.4374 100.182 17.6094 100.182 17.7832C100.182 17.957 100.144 18.129 100.071 18.2888C99.9981 18.4486 99.8911 18.5929 99.7568 18.713C99.6224 18.8331 99.4634 18.9264 99.2893 18.9875C99.1152 19.0485 98.9297 19.076 98.744 19.0681L93.8725 19.106V21.634H99.4655C101.423 21.634 103 19.9099 103 17.7832C103 15.6565 101.419 13.9324 99.4655 13.9324H97.7666C97.3937 13.9405 97.0325 13.8098 96.7624 13.5691C96.4924 13.3285 96.3356 12.9975 96.3264 12.6488C96.3352 12.2999 96.4919 11.9685 96.762 11.7276C97.032 11.4866 97.3934 11.3558 97.7666 11.3639L102.568 11.3756Z" fill="white"/>
</svg>
