<svg width="58" height="64" viewBox="0 0 58 64" fill="none" xmlns="http://www.w3.org/2000/svg">
<path d="M32.1667 57.333H10C9.16015 57.333 8.35469 56.9994 7.76083 56.4055C7.16696 55.8116 6.83333 55.0062 6.83333 54.1663V9.83301C6.83333 8.99316 7.16696 8.1877 7.76083 7.59384C8.35469 6.99997 9.16015 6.66634 10 6.66634H25.8333V16.1663C25.8333 18.6859 26.8342 21.1023 28.6158 22.8839C30.3974 24.6655 32.8138 25.6663 35.3333 25.6663H44.8333V31.9997C44.8333 32.8395 45.167 33.645 45.7608 34.2388C46.3547 34.8327 47.1601 35.1663 48 35.1663C48.8398 35.1663 49.6453 34.8327 50.2392 34.2388C50.833 33.645 51.1667 32.8395 51.1667 31.9997V22.4997C51.1667 22.4997 51.1667 22.4997 51.1667 22.3097C51.1337 22.0188 51.07 21.7322 50.9767 21.4547V21.1697C50.8244 20.8441 50.6213 20.5448 50.375 20.283L31.375 1.28301C31.1132 1.03669 30.8139 0.833598 30.4883 0.681341C30.3938 0.667915 30.2979 0.667915 30.2033 0.681341C29.8816 0.496855 29.5264 0.378431 29.1583 0.333008H10C7.48044 0.333008 5.06408 1.3339 3.28249 3.11549C1.50089 4.89709 0.5 7.31345 0.5 9.83301V54.1663C0.5 56.6859 1.50089 59.1023 3.28249 60.8839C5.06408 62.6654 7.48044 63.6663 10 63.6663H32.1667C33.0065 63.6663 33.812 63.3327 34.4058 62.7388C34.9997 62.145 35.3333 61.3395 35.3333 60.4997C35.3333 59.6598 34.9997 58.8544 34.4058 58.2605C33.812 57.6666 33.0065 57.333 32.1667 57.333ZM32.1667 11.1313L40.3683 19.333H35.3333C34.4935 19.333 33.688 18.9994 33.0942 18.4055C32.5003 17.8116 32.1667 17.0062 32.1667 16.1663V11.1313ZM16.3333 19.333C15.4935 19.333 14.688 19.6666 14.0942 20.2605C13.5003 20.8544 13.1667 21.6598 13.1667 22.4997C13.1667 23.3395 13.5003 24.145 14.0942 24.7388C14.688 25.3327 15.4935 25.6663 16.3333 25.6663H19.5C20.3399 25.6663 21.1453 25.3327 21.7392 24.7388C22.333 24.145 22.6667 23.3395 22.6667 22.4997C22.6667 21.6598 22.333 20.8544 21.7392 20.2605C21.1453 19.6666 20.3399 19.333 19.5 19.333H16.3333ZM35.3333 31.9997H16.3333C15.4935 31.9997 14.688 32.3333 14.0942 32.9272C13.5003 33.521 13.1667 34.3265 13.1667 35.1663C13.1667 36.0062 13.5003 36.8116 14.0942 37.4055C14.688 37.9994 15.4935 38.333 16.3333 38.333H35.3333C36.1732 38.333 36.9786 37.9994 37.5725 37.4055C38.1664 36.8116 38.5 36.0062 38.5 35.1663C38.5 34.3265 38.1664 33.521 37.5725 32.9272C36.9786 32.3333 36.1732 31.9997 35.3333 31.9997ZM56.5817 48.7513L50.2483 42.418C49.9472 42.1297 49.592 41.9037 49.2033 41.753C48.4324 41.4363 47.5676 41.4363 46.7967 41.753C46.408 41.9037 46.0528 42.1297 45.7517 42.418L39.4183 48.7513C38.822 49.3476 38.487 50.1564 38.487 50.9997C38.487 51.843 38.822 52.6517 39.4183 53.248C40.0146 53.8443 40.8234 54.1793 41.6667 54.1793C42.51 54.1793 43.3187 53.8443 43.915 53.248L44.8333 52.298V60.4997C44.8333 61.3395 45.167 62.145 45.7608 62.7388C46.3547 63.3327 47.1601 63.6663 48 63.6663C48.8398 63.6663 49.6453 63.3327 50.2392 62.7388C50.833 62.145 51.1667 61.3395 51.1667 60.4997V52.298L52.085 53.248C52.3794 53.5448 52.7296 53.7804 53.1155 53.9412C53.5014 54.1019 53.9153 54.1847 54.3333 54.1847C54.7514 54.1847 55.1653 54.1019 55.5512 53.9412C55.937 53.7804 56.2873 53.5448 56.5817 53.248C56.8785 52.9536 57.1141 52.6034 57.2748 52.2175C57.4356 51.8316 57.5184 51.4177 57.5184 50.9997C57.5184 50.5816 57.4356 50.1677 57.2748 49.7818C57.1141 49.396 56.8785 49.0457 56.5817 48.7513V48.7513ZM29 50.9997C29.8399 50.9997 30.6453 50.666 31.2392 50.0722C31.833 49.4783 32.1667 48.6729 32.1667 47.833C32.1667 46.9932 31.833 46.1877 31.2392 45.5938C30.6453 45 29.8399 44.6663 29 44.6663H16.3333C15.4935 44.6663 14.688 45 14.0942 45.5938C13.5003 46.1877 13.1667 46.9932 13.1667 47.833C13.1667 48.6729 13.5003 49.4783 14.0942 50.0722C14.688 50.666 15.4935 50.9997 16.3333 50.9997H29Z" fill="#FBCE50"/>
</svg>
