<svg width="376" height="376" viewBox="0 0 376 376" fill="none" xmlns="http://www.w3.org/2000/svg">
<path d="M188 376C291.83 376 376 291.83 376 188C376 84.1705 291.83 0 188 0C84.1705 0 0 84.1705 0 188C0 291.83 84.1705 376 188 376Z" fill="url(#paint0_linear_1285_34443)" fill-opacity="0.6"/>
<g clip-path="url(#clip0_1285_34443)">
<path d="M249.261 138.153L171.761 93.332V203.422L249.253 248.234L249.261 138.153Z" fill="#243D7D"/>
<path d="M171.761 203.422L145.954 218.316L145.945 108.226L171.761 93.332V203.422Z" fill="#2B6A94"/>
<path d="M249.261 221.502V248.235L226.12 234.86L171.761 203.414V176.777C171.77 176.777 249.261 221.502 249.261 221.502Z" fill="#398CC4"/>
<path d="M249.261 248.21L82.0088 268.026V241.545L249.261 221.504V248.21Z" fill="#3357B3"/>
<path d="M249.261 248.209L171.761 203.484L97.8908 246.109C76.7031 258.338 76.7031 278.162 97.8908 290.383L98.6636 290.834C119.851 303.063 154.194 303.063 175.382 290.834L249.261 248.209Z" fill="#3357B3"/>
<path d="M249.261 221.502L226.12 234.86L175.4 264.127C154.212 276.348 119.869 276.348 98.6811 264.127L97.8996 263.676C76.7119 251.455 76.7119 231.623 97.8996 219.402L171.761 176.777C171.77 176.777 249.261 221.502 249.261 221.502Z" fill="#4771DE"/>
<path d="M137.036 270.092C123.099 270.092 110.048 266.984 100.279 261.351L99.5059 260.9C90.284 255.588 85.2129 248.714 85.2129 241.545C85.2129 234.376 90.284 227.502 99.4972 222.181L171.761 180.477L242.844 221.495L173.784 261.351C164.024 266.993 150.973 270.092 137.036 270.092Z" fill="#3357B3"/>
<path d="M249.253 248.237L223.445 263.14V153.05L249.253 138.156V248.237Z" fill="#3357B3"/>
<path d="M223.446 153.047V236.396L145.963 191.67C145.945 191.67 145.963 108.227 145.963 108.227L223.446 153.047Z" fill="#243D7D"/>
<g opacity="0.51">
<path d="M172.856 171.073V174.389L151.051 161.804V158.488L172.856 171.073ZM151.051 167.107L172.856 179.692V176.377L151.051 163.791V167.107ZM151.051 172.401L172.856 184.987V181.671L151.051 169.086V172.401ZM151.051 177.705L172.856 190.29V186.974L151.051 174.389V177.705ZM151.051 182.999L172.856 195.584V192.269L151.051 179.683V182.999ZM151.051 188.302L172.856 200.887V197.572L151.051 184.987V188.302Z" fill="#243D7D"/>
</g>
<path d="M226.502 96.4922L200.686 111.386L223.445 153.047L249.253 138.153L226.502 96.4922Z" fill="#4771DE"/>
<path d="M205.001 112.601L225.26 100.91L244.945 136.938L224.687 148.638L205.001 112.601Z" fill="#243D7D"/>
<path d="M161.949 223.012H105.29V239.364H161.949V223.012Z" fill="#1A1A1A"/>
<path d="M113.582 227.803C102.519 234.191 102.519 244.537 113.582 250.925C124.645 257.313 142.585 257.313 153.648 250.925C164.711 244.537 164.711 234.191 153.648 227.803C142.585 221.415 124.654 221.415 113.582 227.803Z" fill="#1A1A1A"/>
<path d="M113.582 211.451C102.519 217.839 102.519 228.185 113.582 234.573C124.645 240.961 142.585 240.961 153.648 234.573C164.711 228.185 164.711 217.839 153.648 211.451C142.585 205.063 124.654 205.063 113.582 211.451Z" fill="#1A1A1A"/>
<path d="M161.949 223.012H105.29V239.364H161.949V223.012Z" fill="#1A1A1A"/>
<path d="M113.582 227.803C102.519 234.191 102.519 244.537 113.582 250.925C124.645 257.313 142.585 257.313 153.648 250.925C164.711 244.537 164.711 234.191 153.648 227.803C142.585 221.415 124.654 221.415 113.582 227.803Z" fill="#1A1A1A"/>
<path d="M113.582 211.451C102.519 217.839 102.519 228.185 113.582 234.573C124.645 240.961 142.585 240.961 153.648 234.573C164.711 228.185 164.711 217.839 153.648 211.451C142.585 205.063 124.654 205.063 113.582 211.451Z" fill="#1A1A1A"/>
<path d="M169.243 210.633H98.0039V231.186H169.243V210.633Z" fill="#B3B3B3"/>
<path d="M108.433 216.648C94.5218 224.676 94.5218 237.687 108.433 245.715C122.344 253.743 144.895 253.743 158.806 245.715C172.717 237.687 172.717 224.676 158.806 216.648C144.895 208.628 122.344 208.628 108.433 216.648Z" fill="#B3B3B3"/>
<path d="M108.433 196.096C94.5218 204.124 94.5218 217.134 108.433 225.163C122.344 233.191 144.895 233.191 158.806 225.163C172.717 217.134 172.717 204.124 158.806 196.096C144.895 188.067 122.344 188.067 108.433 196.096Z" fill="#F2F2F2"/>
<path d="M126.746 206.668C122.952 208.855 122.952 212.405 126.746 214.601C130.541 216.788 136.689 216.788 140.484 214.601C144.278 212.414 144.278 208.864 140.484 206.668C136.698 204.481 130.541 204.481 126.746 206.668Z" fill="#1A1A1A"/>
<path d="M146.579 206.616L158.953 199.481V188.484L139.485 191.531V202.528L146.579 206.616Z" fill="#1A1A1A"/>
<path d="M120.85 205.411V194.414L101.355 197.391V208.388L118.254 211L120.85 205.411Z" fill="#1A1A1A"/>
<path d="M146.579 195.627L158.953 188.483L151.859 184.387L139.485 191.53L146.579 195.627Z" fill="#F2F2F2"/>
<path d="M120.85 194.413L103.952 191.801L101.355 197.39L118.254 200.003L120.85 194.413Z" fill="#F2F2F2"/>
<path d="M146.11 179.684H120.016V210.721H146.11V179.684Z" fill="#B3B3B3"/>
<path d="M133.067 218.255C140.275 218.255 146.119 214.882 146.119 210.721C146.119 206.56 140.275 203.188 133.067 203.188C125.859 203.188 120.016 206.56 120.016 210.721C120.016 214.882 125.859 218.255 133.067 218.255Z" fill="#B3B3B3"/>
<path d="M123.845 174.363C118.748 177.305 118.748 182.07 123.845 185.013C128.943 187.955 137.201 187.955 142.298 185.013C147.395 182.07 147.395 177.305 142.298 174.363C137.201 171.421 128.934 171.421 123.845 174.363Z" fill="#F2F2F2"/>
<path d="M131.896 218.872L136.428 228.627L146.119 227.126V216.129L131.896 207.875V218.872Z" fill="#1A1A1A"/>
<path d="M131.896 207.876L136.428 217.631L146.119 216.13L141.586 206.383L131.896 207.876Z" fill="#F2F2F2"/>
<path d="M116.969 218.212C118.306 218.985 118.306 220.243 116.969 221.016C115.632 221.788 113.452 221.788 112.115 221.016C110.778 220.243 110.778 218.985 112.115 218.212C113.452 217.44 115.623 217.44 116.969 218.212Z" fill="#B3B3B3"/>
<path d="M159.084 209.601C160.421 210.374 160.421 211.632 159.084 212.405C157.746 213.177 155.567 213.177 154.23 212.405C152.892 211.632 152.892 210.374 154.23 209.601C155.567 208.82 157.738 208.82 159.084 209.601Z" fill="#B3B3B3"/>
<path d="M139.945 183.65C139.016 184.197 137.939 184.596 136.784 184.865C134.414 185.438 131.722 185.438 129.351 184.865C128.196 184.596 127.12 184.188 126.191 183.65C122.379 181.454 122.379 177.895 126.191 175.708C129.985 173.53 136.142 173.53 139.945 175.708C143.757 177.895 143.757 181.454 139.945 183.65Z" fill="#1A1A1A"/>
<path d="M137.462 180.434L136.784 184.869C134.414 185.442 131.722 185.442 129.351 184.869L128.674 180.434H137.462Z" fill="#9D9D9C"/>
<path d="M136.176 178.637C137.896 179.626 137.896 181.232 136.176 182.221C134.457 183.211 131.678 183.211 129.959 182.221C128.24 181.232 128.24 179.626 129.959 178.637C131.678 177.647 134.457 177.647 136.176 178.637Z" fill="#1A1A1A"/>
<path d="M136.385 149.805H129.759V179.228H136.385V149.805Z" fill="#B3B3B3"/>
<path d="M135.412 177.872C136.706 178.619 136.706 179.825 135.412 180.572C134.118 181.318 132.025 181.318 130.732 180.572C129.438 179.825 129.438 178.619 130.732 177.872C132.017 177.126 134.118 177.126 135.412 177.872Z" fill="#B3B3B3"/>
<path d="M135.412 148.45C136.706 149.197 136.706 150.403 135.412 151.15C134.118 151.896 132.025 151.896 130.732 151.15C129.438 150.403 129.438 149.197 130.732 148.45C132.017 147.704 134.118 147.704 135.412 148.45Z" fill="#9D9D9C"/>
<path d="M139.25 142.281H126.885V150.362H139.25V142.281Z" fill="#F2F2F2"/>
<path d="M137.435 147.845C139.849 149.242 139.849 151.499 137.435 152.888C135.021 154.285 131.105 154.285 128.691 152.888C126.277 151.49 126.277 149.234 128.691 147.845C131.114 146.448 135.021 146.448 137.435 147.845Z" fill="#F2F2F2"/>
<path d="M137.435 139.763C139.849 141.16 139.849 143.417 137.435 144.806C135.021 146.203 131.105 146.203 128.691 144.806C126.277 143.408 126.277 141.152 128.691 139.763C131.114 138.365 135.021 138.365 137.435 139.763Z" fill="#9D9D9C"/>
<path d="M141.812 129.848H124.323V141.278H141.812V129.848Z" fill="#1A1A1A"/>
<path d="M139.25 137.704C142.663 139.674 142.663 142.868 139.25 144.839C135.837 146.809 130.297 146.809 126.885 144.839C123.472 142.868 123.472 139.674 126.885 137.704C130.297 135.734 135.837 135.734 139.25 137.704Z" fill="#1A1A1A"/>
<path d="M139.25 126.282C142.663 128.253 142.663 131.447 139.25 133.417C135.837 135.387 130.297 135.387 126.885 133.417C123.472 131.447 123.472 128.253 126.885 126.282C130.297 124.312 135.837 124.312 139.25 126.282Z" fill="#9D9D9C"/>
<path d="M226.502 64.3879V96.4931L203.664 109.66L180.714 122.905L152.796 139.022C143.21 144.551 127.701 144.551 118.132 139.022L117.776 138.814C112.983 136.063 110.595 132.435 110.595 128.815C110.595 125.196 112.983 121.577 117.776 118.799L132.052 110.554L160.082 94.3927L183.032 81.1479L219.269 60.2305L224.192 63.0686L226.181 64.2056L226.502 64.3879Z" fill="#3357B3"/>
<path d="M226.502 64.3891V89.03L196.257 99.4106L170.198 108.368L110.595 128.816V96.3467L151.39 82.3468L177.44 73.3983L217.992 59.4766L219.269 60.2317L224.192 63.0612L226.181 64.1982L226.502 64.3891Z" fill="#3357B3"/>
<path d="M226.181 64.197L187.105 86.7548L164.146 99.9996L152.796 106.553C147.144 109.825 139.398 111.153 132.06 110.554C126.963 110.155 122.057 108.809 118.132 106.553L117.776 106.344C112.983 103.593 110.595 99.9649 110.595 96.3456C110.595 92.7263 112.983 89.1069 117.776 86.3382L143.531 71.4704L166.482 58.2256L191.143 44L191.481 44.1909L217.992 59.4754L219.277 60.2305L224.201 63.0687L226.181 64.197Z" fill="#4771DE"/>
<g opacity="0.5">
<path d="M176.268 97.0664V99.6702L159.17 109.53V106.926L176.268 97.0664ZM176.268 101.224L159.17 111.084V113.687L176.259 103.828V101.224H176.268ZM176.268 105.373L159.17 115.241V117.845L176.259 107.985V105.373H176.268ZM176.268 109.53L159.17 119.39V121.994L176.259 112.134L176.268 109.53ZM176.268 113.679L159.17 123.547V126.151L176.259 116.291V113.679H176.268ZM176.268 117.836L159.17 127.696V130.3L176.259 120.44V117.836H176.268Z" fill="#243D7D"/>
</g>
<path d="M141.63 92.7188H124.41V96.9022H141.63V92.7188Z" fill="#1A1A1A"/>
<path d="M139.111 93.3878C142.472 95.332 142.472 98.474 139.111 100.418C135.751 102.362 130.297 102.362 126.937 100.418C123.576 98.474 123.576 95.332 126.937 93.3878C130.297 91.4436 135.751 91.4436 139.111 93.3878Z" fill="#1A1A1A"/>
<path d="M139.111 89.2055C142.472 91.1497 142.472 94.2917 139.111 96.2359C135.751 98.1801 130.297 98.1801 126.937 96.2359C123.576 94.2917 123.576 91.1497 126.937 89.2055C130.297 87.27 135.751 87.27 139.111 89.2055Z" fill="#B3B3B3"/>
<path d="M136.749 88.1106C138.807 89.2996 138.807 91.2265 136.749 92.4156C134.691 93.6046 131.348 93.6046 129.29 92.4156C127.232 91.2265 127.232 89.2996 129.29 88.1106C131.348 86.9215 134.691 86.9215 136.749 88.1106Z" fill="#F2F2F2"/>
<path d="M201.111 249.579L223.688 236.552V186.992L201.111 200.02V249.579Z" fill="#3357B3"/>
<path d="M186.958 173.497L191.178 175.892L213.755 162.856L209.535 160.469L186.958 173.497Z" fill="#4771DE"/>
<path d="M201.112 249.58L186.958 241.465V173.496L191.178 175.892L201.112 200.02V249.58Z" fill="#243D7D"/>
<path d="M201.111 200.021L191.177 175.892L213.754 162.855L223.688 186.993L201.111 200.021Z" fill="#4771DE"/>
<path d="M199.87 192.342L193.409 176.649L212.886 165.418L219.338 181.102L199.87 192.342Z" fill="#243D7D"/>
<path d="M220.146 183.062L221.457 186.23L201.98 197.47L200.677 194.302L220.146 183.062Z" fill="#243D7D"/>
<path d="M202.023 188.93L215.908 180.988L210.698 168.828L196.813 176.761L202.023 188.93Z" fill="#F6F6F6"/>
<path d="M210.134 170.219L208.032 171.425L208.71 173.022L210.82 171.816L210.134 170.219Z" fill="#3CA6C1"/>
<path d="M207.598 171.668L205.497 172.874L206.174 174.471L208.284 173.265L207.598 171.668Z" fill="#B3B3B3"/>
<path d="M211.923 174.387L209.812 175.593L210.498 177.19L212.6 175.984L211.923 174.387Z" fill="#3357B3"/>
<path d="M209.387 175.836L207.277 177.042L207.963 178.631L210.064 177.433L209.387 175.836Z" fill="#B3B3B3"/>
<path d="M205.349 174.282L206.903 177.91C207.12 178.422 206.938 179.038 206.495 179.29L201.294 182.267C200.851 182.519 200.313 182.319 200.096 181.807L198.541 178.179C198.324 177.667 198.506 177.051 198.949 176.799L204.151 173.822C204.594 173.57 205.132 173.778 205.349 174.282Z" fill="#4771DE"/>
<path d="M212.808 176.469L210.707 177.675L211.384 179.264L213.494 178.066L212.808 176.469Z" fill="#B3B3B3"/>
<path d="M211.037 172.344L206.4 174.991L207.086 176.588L211.723 173.941L211.037 172.344Z" fill="#3CA6C1"/>
<path d="M202.675 182.258L200.573 183.464L201.251 185.053L203.361 183.855L202.675 182.258Z" fill="#B3B3B3"/>
<path d="M213.702 178.551L211.592 179.757L212.278 181.346L214.38 180.148L213.702 178.551Z" fill="#3CA6C1"/>
<path d="M211.167 180L209.057 181.198L209.743 182.795L211.853 181.588L211.167 180Z" fill="#B3B3B3"/>
<path d="M207.077 180.859L204.967 182.066L205.653 183.654L207.754 182.456L207.077 180.859Z" fill="#3357B3"/>
<path d="M203.569 184.34L201.459 185.546L202.145 187.135L204.246 185.937L203.569 184.34Z" fill="#B3B3B3"/>
<path d="M243.547 188.582L209.447 208.258V257.445L243.547 237.768V188.582Z" fill="#1D1D1B"/>
<mask id="mask0_1285_34443" style="mask-type:luminance" maskUnits="userSpaceOnUse" x="209" y="188" width="35" height="66">
<path d="M243.547 188.582L209.447 208.258V253.504L243.547 233.819V188.582Z" fill="white"/>
</mask>
<g mask="url(#mask0_1285_34443)">
<path d="M235.559 244.094H230.583V249.787H235.559V244.094Z" fill="#9D9D9C"/>
<path d="M231.312 248.775C230.34 249.339 230.34 250.242 231.312 250.806C232.285 251.37 233.857 251.37 234.829 250.806C235.802 250.242 235.802 249.339 234.829 248.775C233.857 248.211 232.285 248.211 231.312 248.775Z" fill="#9D9D9C"/>
<path d="M231.312 243.079C230.34 243.644 230.34 244.546 231.312 245.11C232.285 245.675 233.857 245.675 234.829 245.11C235.802 244.546 235.802 243.644 234.829 243.079C233.857 242.515 232.285 242.515 231.312 243.079Z" fill="#B3B3B3"/>
<path d="M237.721 243.869V236.422H228.429V243.869C228.429 244.554 228.881 245.24 229.792 245.761C231.607 246.811 234.551 246.811 236.366 245.761C237.26 245.249 237.721 244.563 237.721 243.869Z" fill="#9D9D9C"/>
<path d="M229.784 234.53C227.969 235.58 227.969 237.273 229.784 238.323C231.599 239.373 234.543 239.373 236.357 238.323C238.172 237.273 238.172 235.58 236.357 234.53C234.543 233.48 231.599 233.48 229.784 234.53Z" fill="#B3B3B3"/>
<path d="M236.61 231.919C234.456 231.121 231.686 231.121 229.532 231.919H226.502V237.483C226.502 238.455 227.145 239.427 228.43 240.165C231 241.649 235.159 241.649 237.721 240.165C239.006 239.427 239.649 238.455 239.649 237.483V231.919H236.61Z" fill="#1A1A1A"/>
<path d="M228.421 229.238C225.851 230.722 225.851 233.118 228.421 234.602C230.991 236.086 235.151 236.086 237.712 234.602C240.283 233.118 240.283 230.722 237.712 229.238C235.151 227.754 230.991 227.754 228.421 229.238Z" fill="#706F6F"/>
<path d="M236.844 222.883H229.298V231.51H236.844V222.883Z" fill="#F2F2F2"/>
<path d="M230.401 229.974C228.924 230.824 228.924 232.204 230.401 233.055C231.877 233.906 234.265 233.906 235.732 233.055C237.208 232.204 237.208 230.824 235.732 229.974C234.265 229.123 231.877 229.123 230.401 229.974Z" fill="#F2F2F2"/>
<path d="M230.401 221.345C228.924 222.196 228.924 223.576 230.401 224.426C231.877 225.277 234.265 225.277 235.732 224.426C237.208 223.576 237.208 222.196 235.732 221.345C234.265 220.494 231.877 220.494 230.401 221.345Z" fill="#B3B3B3"/>
<path d="M239.64 208.785H226.502V222.933C226.502 223.905 227.145 224.877 228.43 225.615C231 227.099 235.159 227.099 237.721 225.615C239.006 224.877 239.649 223.905 239.649 222.933V208.785H239.64Z" fill="#4D4D4D"/>
<path d="M228.421 206.105C225.851 207.589 225.851 209.985 228.421 211.469C230.991 212.953 235.151 212.953 237.712 211.469C240.283 209.985 240.283 207.589 237.712 206.105C232.129 202.876 234.013 202.876 228.421 206.105Z" fill="#B3B3B3"/>
<path d="M237.712 203.266H228.421V208.031H237.712V203.266Z" fill="#9D9D9C"/>
<path d="M229.784 206.139C227.969 207.189 227.969 208.882 229.784 209.932C231.599 210.982 234.543 210.982 236.357 209.932C238.172 208.882 238.172 207.189 236.357 206.139C234.543 205.089 231.599 205.089 229.784 206.139Z" fill="#9D9D9C"/>
<path d="M229.784 201.374C227.969 202.424 227.969 204.116 229.784 205.166C231.599 206.217 234.543 206.217 236.357 205.166C238.172 204.116 238.172 202.424 236.357 201.374C234.543 200.323 231.599 200.323 229.784 201.374Z" fill="#B3B3B3"/>
<path d="M236.61 198.825C234.456 198.027 231.686 198.027 229.532 198.825H226.502V204.389C226.502 205.361 227.145 206.333 228.43 207.071C231 208.555 235.159 208.555 237.721 207.071C239.006 206.333 239.649 205.361 239.649 204.389V198.825H236.61Z" fill="#1A1A1A"/>
<path d="M228.421 196.14C225.851 197.625 225.851 200.02 228.421 201.504C230.991 202.989 235.151 202.989 237.712 201.504C240.283 200.02 240.283 197.625 237.712 196.14C235.151 194.656 230.991 194.656 228.421 196.14Z" fill="#706F6F"/>
<path d="M237.721 198.541V191.094H228.429V198.541C228.429 199.226 228.881 199.912 229.792 200.433C231.607 201.483 234.551 201.483 236.366 200.433C237.26 199.912 237.721 199.226 237.721 198.541Z" fill="#F2F2F2"/>
<path d="M229.784 189.191C227.969 190.242 227.969 191.934 229.784 192.984C231.599 194.034 234.543 194.034 236.357 192.984C238.172 191.934 238.172 190.242 236.357 189.191C234.543 188.15 231.599 188.15 229.784 189.191Z" fill="#B3B3B3"/>
<path d="M235.559 185.152H230.583V190.846H235.559V185.152Z" fill="#9D9D9C"/>
<path d="M231.312 189.833C230.34 190.397 230.34 191.3 231.312 191.864C232.285 192.428 233.857 192.428 234.829 191.864C235.802 191.3 235.802 190.397 234.829 189.833C233.857 189.269 232.285 189.269 231.312 189.833Z" fill="#9D9D9C"/>
</g>
<mask id="mask1_1285_34443" style="mask-type:luminance" maskUnits="userSpaceOnUse" x="209" y="188" width="35" height="66">
<path d="M243.547 188.582L209.447 208.258V253.504L243.547 233.819V188.582Z" fill="white"/>
</mask>
<g mask="url(#mask1_1285_34443)">
<path d="M223.983 257.967V239.133H214.692V257.967C214.692 258.653 215.143 259.338 216.055 259.859C217.87 260.909 220.814 260.909 222.629 259.859C223.532 259.338 223.992 258.653 223.983 257.967Z" fill="#9D9D9C"/>
<path d="M216.055 237.23C214.24 238.281 214.24 239.973 216.055 241.023C217.87 242.073 220.814 242.073 222.628 241.023C224.443 239.973 224.443 238.281 222.628 237.23C220.814 236.189 217.87 236.189 216.055 237.23Z" fill="#B3B3B3"/>
<path d="M225.911 225.262H212.773V239.409C212.773 240.381 213.416 241.353 214.701 242.091C217.271 243.575 221.43 243.575 223.992 242.091C225.277 241.353 225.92 240.381 225.92 239.409V225.262H225.911Z" fill="#1A1A1A"/>
<path d="M214.692 222.582C212.122 224.066 212.122 226.461 214.692 227.946C217.262 229.43 221.422 229.43 223.983 227.946C226.554 226.461 226.554 224.066 223.983 222.582C218.4 219.353 220.284 219.353 214.692 222.582Z" fill="#B3B3B3"/>
<path d="M223.983 219.742H214.692V224.507H223.983V219.742Z" fill="#9D9D9C"/>
<path d="M216.055 222.605C214.24 223.656 214.24 225.348 216.055 226.398C217.87 227.448 220.814 227.448 222.628 226.398C224.443 225.348 224.443 223.656 222.628 222.605C220.814 221.564 217.87 221.564 216.055 222.605Z" fill="#9D9D9C"/>
<path d="M216.055 217.84C214.24 218.89 214.24 220.582 216.055 221.633C217.87 222.683 220.814 222.683 222.628 221.633C224.443 220.582 224.443 218.89 222.628 217.84C220.814 216.798 217.87 216.798 216.055 217.84Z" fill="#B3B3B3"/>
<path d="M221.83 213.855H216.854V219.549H221.83V213.855Z" fill="#9D9D9C"/>
<path d="M217.583 218.536C216.611 219.101 216.611 220.003 217.583 220.567C218.556 221.132 220.128 221.132 221.1 220.567C222.073 220.003 222.073 219.101 221.1 218.536C220.128 217.972 218.556 217.972 217.583 218.536Z" fill="#9D9D9C"/>
<path d="M217.583 212.841C216.611 213.405 216.611 214.308 217.583 214.872C218.556 215.436 220.128 215.436 221.1 214.872C222.073 214.308 222.073 213.405 221.1 212.841C220.128 212.277 218.556 212.277 217.583 212.841Z" fill="#B3B3B3"/>
<path d="M222.881 207.13C220.727 206.332 217.957 206.332 215.803 207.13H212.773V212.694C212.773 213.666 213.416 214.638 214.701 215.376C217.271 216.86 221.43 216.86 223.992 215.376C225.277 214.638 225.92 213.666 225.92 212.694V207.13H222.881Z" fill="#1A1A1A"/>
<path d="M214.692 204.45C212.122 205.935 212.122 208.33 214.692 209.814C217.262 211.298 221.422 211.298 223.983 209.814C226.554 208.33 226.554 205.935 223.983 204.45C221.422 202.975 217.262 202.975 214.692 204.45Z" fill="#706F6F"/>
<path d="M223.983 206.845V199.398H214.692V206.845C214.692 207.531 215.143 208.217 216.055 208.737C217.87 209.788 220.814 209.788 222.629 208.737C223.532 208.217 223.992 207.531 223.983 206.845Z" fill="#F2F2F2"/>
<path d="M216.055 197.506C214.24 198.557 214.24 200.249 216.055 201.299C217.87 202.35 220.814 202.35 222.628 201.299C224.443 200.249 224.443 198.557 222.628 197.506C220.814 196.456 217.87 196.456 216.055 197.506Z" fill="#B3B3B3"/>
<path d="M221.83 193.469H216.854V199.162H221.83V193.469Z" fill="#9D9D9C"/>
<path d="M217.583 198.139C216.611 198.703 216.611 199.606 217.583 200.17C218.556 200.734 220.128 200.734 221.1 200.17C222.073 199.606 222.073 198.703 221.1 198.139C220.128 197.584 218.556 197.584 217.583 198.139Z" fill="#9D9D9C"/>
<path d="M217.583 192.454C216.611 193.019 216.611 193.921 217.583 194.485C218.556 195.05 220.128 195.05 221.1 194.485C222.073 193.921 222.073 193.019 221.1 192.454C220.128 191.89 218.556 191.89 217.583 192.454Z" fill="#B3B3B3"/>
</g>
<path d="M264.718 194.475L243.547 188.582V237.768L264.718 243.662V194.475Z" fill="#4771DE"/>
<path d="M245.571 280.55C255.426 285.644 266.342 287.467 277.595 288.63C283.613 288.63 284.021 275.759 280.93 274.708L270.979 271.645L243.712 278.744C244.19 279.395 244.815 280.003 245.571 280.55Z" fill="#D26525"/>
<path d="M278.36 277.355L285.115 277.72L289.414 277.451C293.095 277.902 293.477 286.894 292.6 295.07L285.845 299.314C283.544 299.193 282.962 299.028 281.234 297.717C280.504 296.442 280.591 295.018 282.927 293.065L282.467 288.361L277.847 287.493C274.704 286.304 274.886 278.996 278.36 277.355Z" fill="black"/>
<path d="M231.816 291.227C241.663 296.322 252.57 298.154 263.841 299.308C267.922 299.308 269.416 293.371 268.999 289.222C268.773 287.278 268.139 285.716 267.158 285.395L257.076 282.288C257.076 282.288 273.341 275.526 277.465 271.386C282.293 266.5 280.617 259.617 279.923 256.866C279.914 256.735 279.879 256.623 279.853 256.51C279.792 256.301 279.41 255.529 279.046 254.791C278.707 254.114 278.386 253.481 278.386 253.411C278.386 253.081 275.902 253.871 272.542 255.086C271.673 255.399 270.753 255.729 269.798 256.093C265.803 257.577 261.279 259.365 258.223 260.58C257.728 260.78 257.285 260.971 256.877 261.127C255.47 261.691 254.602 262.039 254.602 262.039C254.558 262.065 254.532 262.082 254.489 262.108C254.089 262.342 253.69 262.585 253.308 262.837C251.554 263.905 249.826 264.981 248.167 266.066C245.119 268.045 242.236 270.058 239.553 272.107C236.097 274.754 232.988 277.471 230.34 280.283C227.648 285.204 228.395 288.754 231.816 291.227Z" fill="#E77C3D"/>
<path d="M264.414 286.758L271.169 287.122L275.468 286.853C279.15 287.305 279.532 296.296 278.655 304.473L271.899 308.717C269.598 308.595 269.016 308.43 267.288 307.12C266.559 305.844 266.637 304.42 268.981 302.468L268.521 297.763L263.901 296.895C260.758 295.706 260.94 288.398 264.414 286.758Z" fill="black"/>
<path d="M277.465 271.377C273.34 275.534 257.093 282.287 257.093 282.287L267.166 285.385C268.156 285.724 268.781 287.277 268.99 289.23L261.618 290.888C258.926 285.455 250.616 283.441 241.611 282.599C255.504 280.151 263.867 275.178 261.687 266.169C270.379 273.659 279.723 264.641 279.87 256.5C280.469 259.008 282.501 266.282 277.465 271.377Z" fill="#E77C3D"/>
<path d="M244.884 207.654L244.363 207.645L242.54 207.992L241.672 208.279L239.822 209.077L239.423 209.52L235.133 207.385C233.83 206.777 233.188 207.767 234.282 208.426C235.94 209.346 237.425 210.457 238.71 211.803C239.579 213.096 240.23 214.537 239.7 215.483L236.783 216.012C235.333 216.455 236.123 217.635 236.948 217.514C238.441 217.505 239.839 217.644 241.107 218C242.905 217.462 244.641 217.193 246.282 217.444L249.982 214.788C249.339 213.999 248.94 213.07 248.584 212.15C248.123 210.97 247.733 209.815 246.986 209.069L244.884 207.654Z" fill="#FFD89E"/>
<path d="M222.412 221.081L220.51 215.483C220.059 214.363 218.826 214.589 219.155 215.821L220.197 220.378L216.88 214.432C216.194 213.452 215.022 214.059 215.482 215.118L218.018 220.751L214.041 215.76C213.346 214.84 212.278 215.587 213.103 216.837L215.812 221.758L212.817 218.868C211.948 218.191 211.314 219.024 211.974 219.753L215.613 223.763C215.752 226.315 216.698 228.658 218.305 230.836C219.538 232.269 222.759 234.577 223.124 234.326L226.701 230.672L223.662 229.535C224.036 229.031 224.235 228.432 224.305 227.764C224.313 227.66 224.322 227.547 224.331 227.434C224.34 227.165 224.34 226.931 224.313 226.688L224.253 226.505L223.784 220.994C223.68 219.579 222.525 219.874 222.412 221.081Z" fill="#FFD89E"/>
<path d="M281.329 224.429C277.656 229.706 260.168 229.654 257.224 229.698C251.666 226.504 250.598 223.917 245.18 217.885C243.73 214.552 246.335 212.165 248.775 212.695C253.933 215.203 254.732 216.34 257.71 218.128C262.712 214.7 271.378 214.596 275.355 212.999C280.435 215.455 285.089 219.022 281.329 224.429Z" fill="#D26525"/>
<path d="M283.769 223.873C282.857 237.031 280.218 249.92 278.811 253.678C271.404 264.553 254.419 263.252 253.611 262.904C251.892 256.499 250.112 244.669 249.704 235.998C249.556 232.795 249.296 229.627 248.792 226.633C257.102 219.143 264.518 215.749 275.363 212.989C280.739 212.92 283.656 217.849 283.769 223.873Z" fill="#D6601C"/>
<path d="M253.612 262.905C251.892 256.5 250.112 244.67 249.704 235.999L254.272 235.07C253.447 255.172 257.406 257.29 253.612 262.905Z" fill="#3CA6C1"/>
<path d="M258.379 213.278L258.37 219.796C265.239 223.146 272.95 217.583 271.864 214.771L268.99 209.441L258.379 213.278Z" fill="#FFD89E"/>
<path d="M254.758 238.066C251.085 243.343 237.026 244.107 234.082 244.15C228.525 240.956 226.675 239.402 221.266 233.362C219.815 230.029 221.952 227.373 224.383 227.902C229.35 230.081 231.59 230.792 234.569 232.589C240.951 229.491 244.807 228.241 248.784 226.652C253.855 229.091 258.518 232.658 254.758 238.066Z" fill="#D6601C"/>
<path d="M255.4 213.339C257.545 215.717 260.732 215.352 263.962 214.45C268.677 212.193 272.047 208.903 271.5 202.741C271.821 198.254 269.719 193.593 262.087 193.94C257.224 194.157 253.108 195.98 252.882 201.179C252.882 201.17 252.761 210.978 255.4 213.339Z" fill="#FFD89E"/>
<path d="M271.587 205.628C271.413 207.164 271.144 208.536 270.848 209.577C270.614 210.359 270.362 210.949 270.102 211.287C268.487 213.674 263.103 215.748 259.438 213.179L258.318 210.142C258.318 210.142 256.182 208.345 255.965 208.284C255.748 208.215 256.06 204.179 256.06 204.179C254.471 203.033 253.299 201.679 252.891 199.891C252.327 195.829 256.034 192.262 262.061 192.444C268.157 192.626 271.057 196.428 271.691 200.377C271.812 202.174 271.752 203.997 271.587 205.628Z" fill="black"/>
<path d="M256.625 208.867C256.034 208.225 256.911 206.706 257.563 206.481C258.466 206.168 258.987 207.487 259.091 208.199C259.23 209.163 259.117 209.918 258.587 210.725C257.979 211.654 256.998 210.76 256.677 210.031C256.451 209.501 256.998 209.275 256.625 208.867Z" fill="#FFD89E"/>
<path d="M267.288 207.869L267.618 208.997C268.999 208.607 270.145 208.051 270.996 207.279L271.213 205.855C270.058 206.923 268.964 207.557 267.288 207.869Z" fill="white"/>
<path d="M254.723 203.156C250.763 200.023 247.36 197.792 247.238 195.622C247.212 192.628 250.52 190.328 253.308 190.467C255.513 190.623 258.058 191.691 260.749 193.175L254.723 203.156Z" fill="#6BC1D8"/>
<path d="M253.447 199.155C253.117 204.997 259.1 208.72 265.899 209.128C266.767 209.119 267.08 209.093 267.618 208.989C267.305 207.678 267.809 206.186 269.424 205.457C270.657 204.901 271.152 205.682 270.996 207.271C272.446 205.743 272.385 203.495 271.986 200.674C270.423 195.536 267.661 191.995 261.357 191.578C257.632 191.96 254.28 193.896 253.447 199.155Z" fill="#3CA6C1"/>
<path d="M251.25 213.962C248.176 213.797 245.883 216.887 246.838 219.769L243.981 217.364L244.728 212.66L248.61 212.27L251.25 213.962Z" fill="#FFD89E"/>
<path d="M226.667 228.872C223.601 228.603 221.812 232.378 222.776 235.025L220.501 232.812L220.44 227.995L223.766 227.535L226.667 228.872Z" fill="#FFD89E"/>
<path d="M221.457 228.559L209.447 208.258V257.444L221.457 277.745V228.559Z" fill="#4771DE"/>
<path d="M211.601 298.456L219.659 303.108C219.876 303.238 219.972 303.481 219.868 303.664C219.755 303.855 219.494 303.898 219.277 303.777L211.219 299.124C210.984 298.925 211.366 298.361 211.601 298.456Z" fill="#1A1A1A"/>
<path d="M218.756 303.914C218.756 304.096 218.808 304.244 218.895 304.34C218.913 304.357 218.939 304.383 218.956 304.392C218.999 304.418 220.189 305.103 220.189 305.103C220.076 305.016 220.007 304.852 220.007 304.643C220.007 304.157 220.345 303.567 220.771 303.324C220.971 303.211 221.153 303.194 221.283 303.263L220.085 302.569L220.015 302.534C219.833 302.482 219.677 302.508 219.512 302.604C219.095 302.838 218.756 303.428 218.756 303.914Z" fill="#3357B3"/>
<path d="M222.16 303.071L226.945 305.831C227.753 306.3 228.022 307.324 227.561 308.131C227.084 308.964 226.051 309.242 225.243 308.773L220.458 306.013C219.651 305.544 219.382 304.52 219.842 303.713C220.328 302.88 221.353 302.602 222.16 303.071Z" fill="#3357B3"/>
<path d="M220.502 302.993C221.005 302.698 221.413 302.941 221.413 303.522C221.413 304.104 221.005 304.816 220.502 305.102C219.998 305.397 219.59 305.154 219.59 304.573C219.59 303.991 219.998 303.288 220.502 302.993Z" fill="#3357B3"/>
<path d="M220.137 304.626L224.93 307.395C225.087 307.482 225.217 307.707 225.217 307.881C225.217 308.098 225.087 308.167 224.93 308.08L220.137 305.312C219.981 305.225 219.851 304.999 219.851 304.826C219.859 304.609 219.981 304.531 220.137 304.626Z" fill="#4771DE"/>
<path d="M221.483 303.083L226.285 305.851C226.441 305.938 226.441 306.086 226.285 306.181C226.103 306.285 225.842 306.285 225.695 306.199L220.893 303.43C220.736 303.343 220.736 303.195 220.893 303.1C221.075 302.996 221.327 302.996 221.483 303.083Z" fill="#4771DE"/>
<path d="M220.597 303.714L225.573 306.552C225.694 306.621 225.72 306.786 225.634 306.916C225.529 307.072 225.364 307.133 225.243 307.064L220.267 304.226C220.146 304.156 220.12 303.991 220.206 303.861C220.311 303.696 220.476 303.644 220.597 303.714Z" fill="#4771DE"/>
<path d="M212.235 299.089L211.775 299.358L210.533 298.907L209.769 298.117L210.238 297.848L211.454 298.368L212.235 299.089Z" fill="#1A1A1A"/>
<path d="M212.261 298.881C212.591 299.176 212.27 299.341 211.792 299.15L210.55 298.698L209.76 298.117L210.229 297.848L211.471 298.169L212.261 298.881Z" fill="#B3B3B3"/>
<path d="M223.94 297.412C223.671 297.256 223.289 297.213 223.02 297.317C223.02 297.117 223.02 296.909 223.02 296.709V296.631C223.289 296.536 223.671 296.57 223.94 296.727C223.94 296.952 223.94 297.187 223.94 297.412Z" fill="#B3B3B3"/>
<path d="M224.01 297.456C223.993 297.438 223.966 297.43 223.94 297.412C223.94 297.187 223.94 296.952 223.94 296.727C223.966 296.744 223.984 296.753 224.01 296.77C224.01 296.996 224.01 297.23 224.01 297.456C224.01 297.221 224.01 296.996 224.01 296.77C224.01 296.996 224.01 297.23 224.01 297.456Z" fill="#B3B3B3"/>
<path d="M224.227 297.794C224.227 297.681 224.157 297.559 224.01 297.455C224.01 297.23 224.01 296.995 224.01 296.77C224.157 296.874 224.227 296.995 224.227 297.108C224.227 297.308 224.227 297.585 224.227 297.794Z" fill="#B3B3B3"/>
<path d="M224.227 297.098V297.783C224.227 297.879 224.175 297.966 224.062 298.035V297.349C224.175 297.289 224.227 297.193 224.227 297.098Z" fill="#575756"/>
<path d="M224.392 297.584V298.278L221.9 296.533V295.848L224.392 297.584Z" fill="#1A1A1A"/>
<path d="M225.92 297.332V298.018L225.747 298.165V297.48L225.92 297.332Z" fill="#B3B3B3"/>
<path d="M225.781 298.191C225.339 298.052 224.783 298.079 224.392 298.269C224.392 298.07 224.392 297.862 224.392 297.662V297.584C224.783 297.393 225.339 297.367 225.781 297.506C225.781 297.714 225.781 297.992 225.781 298.191Z" fill="#B3B3B3"/>
<path d="M225.747 297.481C225.339 297.368 224.791 297.403 224.392 297.585L221.9 295.841L222.256 295.676L224.297 296.327L225.92 297.325L225.747 297.481ZM223.02 296.631L224.062 297.36C224.297 297.212 224.279 296.96 224.01 296.769C223.993 296.752 223.967 296.743 223.941 296.726C223.671 296.57 223.289 296.526 223.02 296.631Z" fill="#B3B3B3"/>
<path d="M221.092 296.516L220.979 296.395V297.089L221.092 297.21L222.082 298.278V297.592L221.092 296.516Z" fill="#EDEDED"/>
<path d="M222.508 297.74V297.055C222.508 297.176 222.603 297.306 222.777 297.402C223.159 297.593 223.593 297.61 223.845 297.471V298.157C223.593 298.296 223.159 298.278 222.829 298.114C222.603 297.992 222.508 297.862 222.508 297.74Z" fill="#575756"/>
<path d="M226.441 298.833C226.441 298.729 226.407 298.625 226.329 298.529V297.844C226.407 297.939 226.441 298.043 226.441 298.148C226.45 298.356 226.441 298.634 226.441 298.833Z" fill="#B3B3B3"/>
<path d="M224.201 298.533V299.227L224.08 299.166V298.48L224.201 298.533Z" fill="#B3B3B3"/>
<path d="M224.522 298.324V299.01L224.201 299.227V298.533L224.522 298.324Z" fill="#B3B3B3"/>
<path d="M224.01 296.77C223.992 296.753 223.966 296.744 223.94 296.726C223.671 296.57 223.289 296.527 223.02 296.631C222.976 296.787 222.968 297.117 223.02 297.239C223.072 297.36 223.437 297.594 223.628 297.673C223.784 297.742 223.984 297.542 224.062 297.351C224.296 297.213 224.279 296.961 224.01 296.77Z" fill="#1A1A1A"/>
<path d="M223.775 298.548V299.243L222.082 298.279V297.594L223.775 298.548Z" fill="#9D9D9C"/>
<path d="M224.635 297.862C224.453 297.983 224.409 298.166 224.522 298.313L224.201 298.53L224.079 298.469C224.036 298.443 223.775 298.547 223.775 298.547L222.074 297.593L221.084 296.516L220.971 296.395L221.266 296.195L222.595 296.855C222.412 297.011 222.49 297.237 222.76 297.402C223.142 297.593 223.576 297.61 223.828 297.471L224.227 297.671L224.635 297.862Z" fill="#B3B3B3"/>
<path d="M225.712 297.846C226.016 298.055 225.981 298.324 225.66 298.48C225.364 298.619 224.939 298.61 224.67 298.454C224.574 298.393 224.54 298.358 224.513 298.324C224.401 298.176 224.435 297.994 224.626 297.872C224.652 297.855 224.678 297.838 224.713 297.82C225.017 297.673 225.451 297.69 225.712 297.846Z" fill="#B3B3B3"/>
<path d="M226.242 298.538C226.216 298.564 226.181 298.59 226.146 298.616C226.059 298.668 225.964 298.72 225.868 298.755C225.504 298.885 225.043 298.903 224.653 298.79C224.557 298.764 224.47 298.729 224.383 298.686C224.357 298.677 224.34 298.66 224.314 298.651C224.218 298.599 224.14 298.538 224.088 298.469C224.045 298.443 223.784 298.547 223.784 298.547V299.233L224.045 299.137C224.149 299.224 224.227 299.285 224.323 299.345C224.349 299.354 224.366 299.371 224.392 299.38C224.479 299.423 224.566 299.458 224.661 299.484C225.052 299.597 225.512 299.58 225.877 299.45C225.981 299.415 226.077 299.363 226.155 299.311C226.19 299.285 226.224 299.259 226.25 299.233C226.389 299.111 226.45 298.972 226.45 298.842V298.156C226.45 298.286 226.381 298.425 226.242 298.538Z" fill="#1A1A1A"/>
<path d="M226.076 297.639C226.181 297.7 226.267 297.769 226.328 297.847C226.502 298.073 226.485 298.333 226.241 298.55C226.215 298.576 226.181 298.602 226.146 298.628C226.059 298.68 225.964 298.733 225.868 298.767C225.503 298.897 225.043 298.915 224.652 298.802C224.557 298.776 224.47 298.741 224.383 298.698C224.357 298.689 224.34 298.672 224.314 298.663C224.218 298.611 224.14 298.55 224.088 298.481L224.209 298.542L224.531 298.325C224.557 298.359 224.592 298.394 224.635 298.42C224.948 298.602 225.382 298.62 225.668 298.481C225.981 298.333 226.024 298.064 225.764 297.882C225.451 297.7 225.017 297.682 224.722 297.821C224.687 297.839 224.661 297.856 224.635 297.873L224.244 297.682C224.288 297.648 224.34 297.622 224.392 297.596C224.783 297.405 225.338 297.379 225.781 297.517C225.859 297.543 225.937 297.569 226.007 297.604C226.033 297.613 226.059 297.622 226.076 297.639Z" fill="#B3B3B3"/>
<path d="M226.849 297.855C226.806 298.046 226.919 298.184 227.179 298.332C227.257 298.375 227.344 298.419 227.448 298.471L227.162 298.966L226.259 298.549C226.502 298.341 226.528 298.072 226.346 297.846L226.554 297.707L226.849 297.855Z" fill="#B3B3B3"/>
<path d="M227.153 298.963L226.242 298.538V299.233L227.145 299.649L227.44 299.154V298.469L227.153 298.963Z" fill="#1A1A1A"/>
<path d="M224.67 299.096L224.661 299.782L224.409 299.608V298.914L224.67 299.096Z" fill="#EDEDED"/>
<path d="M225.868 298.758L226.572 299.287L225.712 299.443C225.617 299.374 225.53 299.313 225.443 299.27C225.208 299.131 224.974 299.07 224.661 299.088L224.401 298.905L224.644 298.784C225.043 298.905 225.504 298.888 225.868 298.758Z" fill="#B3B3B3"/>
<path d="M226.572 299.297V299.983L225.712 300.139L225.721 299.453L226.572 299.297Z" fill="#706F6F"/>
<path d="M225.721 299.451V300.137C225.625 300.067 225.538 300.007 225.451 299.963C225.217 299.824 224.983 299.764 224.67 299.781V299.095C224.991 299.069 225.217 299.139 225.451 299.277C225.538 299.321 225.625 299.382 225.721 299.451Z" fill="#1A1A1A"/>
<path d="M237.4 302.713C237.4 302.67 237.391 302.626 237.348 302.583L237.192 302.409C236.558 301.654 235.715 300.977 234.717 300.404C233.076 299.458 231.009 298.781 228.725 298.46C228.604 298.443 228.508 298.408 228.421 298.365C228.274 298.278 228.204 298.156 228.248 298.017C228.17 297.948 227.97 297.922 227.97 297.922C227.814 298.061 227.753 298.113 227.666 298.139C227.579 298.174 227.475 298.182 227.371 298.174L227.293 298.165C227.258 298.156 227.214 298.165 227.18 298.174C227.145 298.182 227.128 298.208 227.119 298.226L227.023 298.495L226.876 298.911V299.84C226.85 299.779 226.832 299.71 226.815 299.649C226.806 299.588 226.798 299.536 226.78 299.475C226.754 299.371 226.693 299.259 226.502 299.128L225.773 299.206L225.313 299.259C225.278 299.259 225.243 299.276 225.217 299.293C225.235 299.467 225.208 299.528 225.156 299.58C225.096 299.632 225.009 299.666 224.905 299.675C224.826 299.684 224.8 299.692 224.783 299.71C224.766 299.736 224.766 300.838 224.766 300.838C224.766 300.847 224.809 300.96 224.809 300.96C224.861 301.003 224.896 301.012 224.931 301.012C225.174 300.986 225.382 301.029 225.521 301.116C225.608 301.168 225.669 301.229 225.695 301.298C226.233 302.678 227.431 303.928 229.133 304.909C230.071 305.447 231.165 305.916 232.372 306.263L232.668 306.358C232.876 306.428 233.136 306.384 233.241 306.271L233.38 306.124L233.553 305.933C233.588 305.898 233.597 305.864 233.597 305.829V304.727C233.597 304.666 233.553 304.596 233.466 304.553C233.44 304.536 233.406 304.518 233.362 304.51L232.52 304.24C232.494 304.232 232.459 304.232 232.424 304.232C232.398 304.24 232.372 304.249 232.355 304.267C231.426 304.006 230.679 303.668 230.019 303.286C228.5 302.409 227.423 301.298 226.936 300.057C227.128 300.144 227.293 300.17 227.457 300.187C227.562 300.196 227.657 300.205 227.787 300.213C230.097 300.456 232.181 301.107 233.805 302.045C234.482 302.435 235.073 302.869 235.568 303.355V303.581C235.585 303.616 236.028 304.102 236.028 304.102C236.054 304.128 236.08 304.145 236.106 304.162C236.237 304.24 236.428 304.258 236.593 304.214L236.923 304.119L237.183 304.041C237.322 303.997 237.4 303.919 237.4 303.833V302.713Z" fill="#D26525"/>
<path d="M226.511 299.121C226.702 299.251 226.754 299.364 226.789 299.468C226.798 299.529 226.806 299.581 226.824 299.642C227.223 301.039 228.369 302.306 230.054 303.27C230.714 303.652 231.461 303.99 232.277 304.268C232.407 304.233 232.433 304.225 232.459 304.216C232.494 304.207 232.52 304.216 232.555 304.225L233.397 304.494C233.432 304.502 233.466 304.52 233.501 304.537C233.631 304.615 233.666 304.728 233.579 304.823L233.406 305.014L233.267 305.162C233.162 305.275 232.902 305.318 232.694 305.249L232.398 305.153C231.183 304.797 230.097 304.337 229.159 303.791C227.457 302.81 226.25 301.56 225.721 300.18C225.695 300.111 225.634 300.05 225.547 299.998C225.408 299.911 225.2 299.876 224.983 299.894C224.922 299.902 224.887 299.894 224.87 299.885C224.835 299.85 224.8 299.737 224.8 299.737C224.826 299.677 224.852 299.668 224.887 299.668C225.043 299.651 225.13 299.616 225.191 299.564C225.252 299.512 225.269 299.451 225.252 299.39C225.278 299.26 225.313 299.251 225.347 299.243L225.808 299.191L226.511 299.121Z" fill="#3CA6C1"/>
<path d="M234.725 300.404C235.724 300.986 236.566 301.654 237.2 302.409L237.356 302.583C237.469 302.704 237.391 302.852 237.191 302.913L236.931 302.991L236.601 303.086C236.436 303.138 236.245 303.112 236.115 303.034C236.08 303.017 236.054 302.991 236.037 302.974L235.594 302.479C235.168 301.802 234.543 301.333 233.822 300.917C232.198 299.979 230.106 299.337 227.805 299.085C227.674 299.076 227.579 299.068 227.475 299.059C227.292 299.042 227.101 299.007 226.875 298.894L227.023 298.478L227.119 298.209C227.127 298.183 227.145 298.165 227.179 298.156C227.214 298.148 227.249 298.139 227.292 298.148L227.37 298.156C227.475 298.165 227.579 298.156 227.666 298.122C227.753 298.087 227.813 298.035 227.831 297.974C227.961 297.896 228.161 297.922 228.161 297.922C228.195 298.13 228.274 298.261 228.412 298.339C228.491 298.382 228.595 298.417 228.716 298.434C231.018 298.781 233.084 299.458 234.725 300.404Z" fill="#3CA6C1"/>
<path d="M222.612 296.855C222.455 296.994 222.49 297.194 222.699 297.342C222.629 297.229 222.594 297.072 222.612 296.855Z" fill="#1A1A1A"/>
<path d="M218.8 284.277H199.062V287.931C199.062 289.39 200.026 290.848 201.954 291.959C205.809 294.181 212.053 294.181 215.908 291.959C217.836 290.848 218.8 289.39 218.8 287.931V284.277Z" fill="#B3B3B3"/>
<path d="M201.954 280.251C198.098 282.473 198.098 286.084 201.954 288.306C205.809 290.528 212.053 290.528 215.908 288.306C219.763 286.084 219.763 282.473 215.908 280.251C212.061 278.02 205.809 278.02 201.954 280.251Z" fill="#EDEDED"/>
<path d="M204.072 287.081C204.533 287.35 204.533 287.775 204.072 288.044C203.612 288.313 202.865 288.313 202.405 288.044C201.945 287.775 201.945 287.35 202.405 287.081C202.865 286.812 203.612 286.812 204.072 287.081Z" fill="#1A1A1A"/>
<path d="M215.465 280.504C215.925 280.773 215.925 281.198 215.465 281.467C215.005 281.736 214.258 281.736 213.798 281.467C213.338 281.198 213.338 280.773 213.798 280.504C214.258 280.243 215.005 280.243 215.465 280.504Z" fill="#1A1A1A"/>
<path d="M213.798 287.081C214.258 286.812 215.005 286.812 215.465 287.081C215.925 287.35 215.925 287.775 215.465 288.044C215.005 288.313 214.258 288.313 213.798 288.044C213.338 287.775 213.338 287.341 213.798 287.081Z" fill="#1A1A1A"/>
<path d="M202.405 280.503C202.865 280.234 203.612 280.234 204.072 280.503C204.533 280.772 204.533 281.197 204.072 281.466C203.612 281.735 202.865 281.735 202.405 281.466C201.945 281.206 201.945 280.772 202.405 280.503Z" fill="#1A1A1A"/>
<path d="M208.935 289.6C209.587 289.6 210.116 289.297 210.116 288.923C210.116 288.549 209.587 288.246 208.935 288.246C208.283 288.246 207.754 288.549 207.754 288.923C207.754 289.297 208.283 289.6 208.935 289.6Z" fill="#1A1A1A"/>
<path d="M208.935 278.949C209.586 278.949 210.116 279.253 210.116 279.626C210.116 279.999 209.586 280.303 208.935 280.303C208.284 280.303 207.754 279.999 207.754 279.626C207.754 279.253 208.284 278.949 208.935 278.949Z" fill="#1A1A1A"/>
<path d="M215.812 284.279C215.812 283.905 216.342 283.602 216.993 283.602C217.645 283.602 218.174 283.905 218.174 284.279C218.174 284.652 217.645 284.956 216.993 284.956C216.342 284.956 215.812 284.652 215.812 284.279Z" fill="#1A1A1A"/>
<path d="M200.877 284.956C201.529 284.956 202.058 284.652 202.058 284.279C202.058 283.905 201.529 283.602 200.877 283.602C200.225 283.602 199.696 283.905 199.696 284.279C199.696 284.652 200.225 284.956 200.877 284.956Z" fill="#1A1A1A"/>
<path d="M214.64 278.535H203.23V284.272H214.64V278.535Z" fill="#B3B3B3"/>
<path d="M208.935 287.559C212.086 287.559 214.64 286.087 214.64 284.27C214.64 282.453 212.086 280.98 208.935 280.98C205.784 280.98 203.23 282.453 203.23 284.27C203.23 286.087 205.784 287.559 208.935 287.559Z" fill="#B3B3B3"/>
<path d="M204.897 276.208C202.666 277.493 202.666 279.576 204.897 280.869C207.129 282.154 210.741 282.154 212.964 280.869C215.196 279.584 215.196 277.501 212.964 276.208C210.741 274.915 207.129 274.915 204.897 276.208Z" fill="#EDEDED"/>
<path d="M208.935 280.278C210.604 280.278 211.957 279.497 211.957 278.534C211.957 277.57 210.604 276.789 208.935 276.789C207.266 276.789 205.913 277.57 205.913 278.534C205.913 279.497 207.266 280.278 208.935 280.278Z" fill="#1A1A1A"/>
</g>
<defs>
<linearGradient id="paint0_linear_1285_34443" x1="188" y1="0" x2="188" y2="376" gradientUnits="userSpaceOnUse">
<stop stop-color="#E3ECFA" stop-opacity="0.27"/>
<stop offset="1" stop-color="#DAE7FF" stop-opacity="0.22"/>
</linearGradient>
<clipPath id="clip0_1285_34443">
<rect width="211" height="265" fill="white" transform="translate(82 44)"/>
</clipPath>
</defs>
</svg>
